# https://github.com/mikedh/trimesh
v 0.00000000 -0.40000000 -0.40000000
v 0.00000000 0.40000000 -0.40000000
v 0.07803600 -0.40000000 -0.39231400
v 0.07803600 0.40000000 -0.39231400
v 0.15307320 -0.40000000 -0.36955200
v 0.15307320 0.40000000 -0.36955200
v 0.22222800 -0.40000000 -0.33258800
v 0.22222800 0.40000000 -0.33258800
v 0.28284280 -0.40000000 -0.28284280
v 0.28284280 0.40000000 -0.28284280
v 0.33258800 -0.40000000 -0.22222800
v 0.33258800 0.40000000 -0.22222800
v 0.36955200 -0.40000000 -0.15307320
v 0.36955200 0.40000000 -0.15307320
v 0.39231400 -0.40000000 -0.07803600
v 0.39231400 0.40000000 -0.07803600
v 0.40000000 -0.40000000 0.00000000
v 0.40000000 0.40000000 0.00000000
v 0.39231400 -0.40000000 0.07803600
v 0.39231400 0.40000000 0.07803600
v 0.36955200 -0.40000000 0.15307320
v 0.36955200 0.40000000 0.15307320
v 0.33258800 -0.40000000 0.22222800
v 0.33258800 0.40000000 0.22222800
v 0.28284280 -0.40000000 0.28284280
v 0.28284280 0.40000000 0.28284280
v 0.22222800 -0.40000000 0.33258800
v 0.22222800 0.40000000 0.33258800
v 0.15307320 -0.40000000 0.36955200
v 0.15307320 0.40000000 0.36955200
v 0.07803600 -0.40000000 0.39231400
v 0.07803600 0.40000000 0.39231400
v 0.00000000 -0.40000000 0.40000000
v 0.00000000 0.40000000 0.40000000
v -0.07803640 -0.40000000 0.39231400
v -0.07803640 0.40000000 0.39231400
v -0.15307360 -0.40000000 0.36955160
v -0.15307360 0.40000000 0.36955160
v -0.22222840 -0.40000000 0.33258760
v -0.22222840 0.40000000 0.33258760
v -0.28284280 -0.40000000 0.28284240
v -0.28284280 0.40000000 0.28284240
v -0.33258800 -0.40000000 0.22222800
v -0.33258800 0.40000000 0.22222800
v -0.36955200 -0.40000000 0.15307320
v -0.36955200 0.40000000 0.15307320
v -0.39231400 -0.40000000 0.07803560
v -0.39231400 0.40000000 0.07803560
v -0.40000000 -0.40000000 -0.00000040
v -0.40000000 0.40000000 -0.00000040
v -0.39231400 -0.40000000 -0.07803640
v -0.39231400 0.40000000 -0.07803640
v -0.36955160 -0.40000000 -0.15307360
v -0.36955160 0.40000000 -0.15307360
v -0.33258760 -0.40000000 -0.22222840
v -0.33258760 0.40000000 -0.22222840
v -0.28284240 -0.40000000 -0.28284320
v -0.28284240 0.40000000 -0.28284320
v -0.22222760 -0.40000000 -0.33258800
v -0.22222760 0.40000000 -0.33258800
v -0.15307280 -0.40000000 -0.36955200
v -0.15307280 0.40000000 -0.36955200
v -0.07803560 -0.40000000 -0.39231440
v -0.07803560 0.40000000 -0.39231440
v 0.00000000 0.39712560 -0.40000000
v 0.07803600 0.39712560 -0.39231400
v 0.15307320 0.39712560 -0.36955200
v 0.22222800 0.39712560 -0.33258800
v 0.28284280 0.39712560 -0.28284280
v 0.33258800 0.39712560 -0.22222800
v 0.36955200 0.39712560 -0.15307320
v 0.39231400 0.39712560 -0.07803600
v 0.40000000 0.39712560 0.00000000
v 0.39231400 0.39712560 0.07803600
v 0.36955200 0.39712560 0.15307320
v 0.33258800 0.39712560 0.22222800
v 0.28284280 0.39712560 0.28284280
v 0.22222800 0.39712560 0.33258800
v 0.15307320 0.39712560 0.36955200
v 0.07803600 0.39712560 0.39231400
v 0.00000000 0.39712560 0.40000000
v -0.07803640 0.39712560 0.39231400
v -0.15307360 0.39712560 0.36955160
v -0.22222840 0.39712560 0.33258760
v -0.28284280 0.39712560 0.28284240
v -0.33258800 0.39712560 0.22222800
v -0.36955200 0.39712560 0.15307320
v -0.39231400 0.39712560 0.07803560
v -0.40000000 0.39712560 -0.00000040
v -0.39231400 0.39712560 -0.07803640
v -0.36955160 0.39712560 -0.15307360
v -0.33258760 0.39712560 -0.22222840
v -0.28284240 0.39712560 -0.28284320
v -0.22222760 0.39712560 -0.33258800
v -0.15307280 0.39712560 -0.36955200
v -0.07803560 0.39712560 -0.39231440
v 0.07803600 -0.39341680 -0.39231400
v 0.15307320 -0.39341680 -0.36955200
v 0.22222800 -0.39341680 -0.33258800
v 0.28284280 -0.39341680 -0.28284280
v 0.33258800 -0.39341680 -0.22222800
v 0.36955200 -0.39341680 -0.15307320
v 0.39231400 -0.39341680 -0.07803600
v 0.40000000 -0.39341680 0.00000000
v 0.39231400 -0.39341680 0.07803600
v 0.36955200 -0.39341680 0.15307320
v 0.33258800 -0.39341680 0.22222800
v 0.28284280 -0.39341680 0.28284280
v 0.22222800 -0.39341680 0.33258800
v 0.15307320 -0.39341680 0.36955200
v 0.07803600 -0.39341680 0.39231400
v 0.00000000 -0.39341680 0.40000000
v -0.07803640 -0.39341680 0.39231400
v -0.15307360 -0.39341680 0.36955160
v -0.22222840 -0.39341680 0.33258760
v -0.28284280 -0.39341680 0.28284240
v -0.33258800 -0.39341680 0.22222800
v -0.36955200 -0.39341680 0.15307320
v -0.39231400 -0.39341680 0.07803560
v -0.40000000 -0.39341680 -0.00000040
v -0.39231400 -0.39341680 -0.07803640
v -0.36955160 -0.39341680 -0.15307360
v -0.33258760 -0.39341680 -0.22222840
v -0.28284240 -0.39341680 -0.28284320
v -0.22222760 -0.39341680 -0.33258800
v -0.15307280 -0.39341680 -0.36955200
v -0.07803560 -0.39341680 -0.39231440
v 0.00000000 -0.39341680 -0.40000000
v 0.00000000 0.40000000 -0.39370320
v 0.07680760 0.40000000 -0.38613840
v 0.15066360 0.40000000 -0.36373440
v 0.21873000 0.40000000 -0.32735240
v 0.27839040 0.40000000 -0.27839040
v 0.32735240 0.40000000 -0.21873000
v 0.36373440 0.40000000 -0.15066360
v 0.38613840 0.40000000 -0.07680760
v 0.39370320 0.40000000 0.00000000
v 0.38613840 0.40000000 0.07680760
v 0.36373440 0.40000000 0.15066360
v 0.32735240 0.40000000 0.21873000
v 0.27839040 0.40000000 0.27839040
v 0.21873000 0.40000000 0.32735240
v 0.15066360 0.40000000 0.36373440
v 0.07680760 0.40000000 0.38613840
v 0.00000000 0.40000000 0.39370320
v -0.07680800 0.40000000 0.38613840
v -0.15066400 0.40000000 0.36373440
v -0.21873000 0.40000000 0.32735240
v -0.27839040 0.40000000 0.27839000
v -0.32735240 0.40000000 0.21872960
v -0.36373440 0.40000000 0.15066360
v -0.38613840 0.40000000 0.07680720
v -0.39370320 0.40000000 -0.00000040
v -0.38613840 0.40000000 -0.07680800
v -0.36373440 0.40000000 -0.15066400
v -0.32735200 0.40000000 -0.21873040
v -0.27839000 0.40000000 -0.27839080
v -0.21872960 0.40000000 -0.32735280
v -0.15066320 0.40000000 -0.36373480
v -0.07680720 0.40000000 -0.38613840
v 0.00000000 -0.40000000 -0.39564360
v 0.07718640 -0.40000000 -0.38804120
v 0.15140640 -0.40000000 -0.36552680
v 0.21980760 -0.40000000 -0.32896560
v 0.27976240 -0.40000000 -0.27976240
v 0.32896560 -0.40000000 -0.21980760
v 0.36552680 -0.40000000 -0.15140640
v 0.38804120 -0.40000000 -0.07718640
v 0.39564360 -0.40000000 0.00000000
v 0.38804160 -0.40000000 0.07718600
v 0.36552720 -0.40000000 0.15140600
v 0.32896560 -0.40000000 0.21980760
v 0.27976240 -0.40000000 0.27976240
v 0.21980760 -0.40000000 0.32896560
v 0.15140600 -0.40000000 0.36552720
v 0.07718600 -0.40000000 0.38804160
v 0.00000000 -0.40000000 0.39564360
v -0.07718640 -0.40000000 0.38804120
v -0.15140640 -0.40000000 0.36552680
v -0.21980800 -0.40000000 0.32896560
v -0.27976240 -0.40000000 0.27976200
v -0.32896560 -0.40000000 0.21980760
v -0.36552720 -0.40000000 0.15140600
v -0.38804160 -0.40000000 0.07718600
v -0.39564360 -0.40000000 -0.00000040
v -0.38804120 -0.40000000 -0.07718680
v -0.36552680 -0.40000000 -0.15140680
v -0.32896520 -0.40000000 -0.21980800
v -0.27976200 -0.40000000 -0.27976280
v -0.21980720 -0.40000000 -0.32896600
v -0.15140560 -0.40000000 -0.36552720
v -0.07718560 -0.40000000 -0.38804160
vn 0.00000167 -0.68569660 -0.72788747
vn 0.00000167 0.68569660 -0.72788747
vn 0.14200305 -0.68569699 -0.71390110
vn 0.14200305 0.68569699 -0.71390110
vn 0.27854944 -0.68569610 -0.67248128
vn 0.27854944 0.68569610 -0.67248128
vn 0.40439238 -0.68569652 -0.60521656
vn 0.40439238 0.68569652 -0.60521656
vn 0.51469438 -0.68569628 -0.51469438
vn 0.51469438 0.68569628 -0.51469438
vn 0.60521656 -0.68569652 -0.40439238
vn 0.60521656 0.68569652 -0.40439238
vn 0.67248128 -0.68569610 -0.27854944
vn 0.67248128 0.68569610 -0.27854944
vn 0.71390110 -0.68569699 -0.14200305
vn 0.71390110 0.68569699 -0.14200305
vn 0.72788793 -0.68569612 -0.00000000
vn 0.72788793 0.68569612 0.00000000
vn 0.71390110 -0.68569699 0.14200305
vn 0.71390110 0.68569699 0.14200305
vn 0.67248128 -0.68569610 0.27854944
vn 0.67248128 0.68569610 0.27854944
vn 0.60521656 -0.68569652 0.40439238
vn 0.60521656 0.68569652 0.40439238
vn 0.51469438 -0.68569628 0.51469438
vn 0.51469438 0.68569628 0.51469438
vn 0.40439238 -0.68569652 0.60521656
vn 0.40439238 0.68569652 0.60521656
vn 0.27854944 -0.68569610 0.67248128
vn 0.27854944 0.68569610 0.67248128
vn 0.14200305 -0.68569699 0.71390110
vn 0.14200305 0.68569699 0.71390110
vn 0.00000018 -0.68569617 0.72788788
vn 0.00000018 0.68569617 0.72788788
vn -0.14200472 -0.68569642 0.71390131
vn -0.14200472 0.68569642 0.71390131
vn -0.27855090 -0.68569661 0.67248015
vn -0.27855090 0.68569661 0.67248015
vn -0.40439353 -0.68569618 0.60521617
vn -0.40439353 0.68569618 0.60521617
vn -0.51469392 -0.68569697 0.51469392
vn -0.51469392 0.68569697 0.51469392
vn -0.60521617 -0.68569618 0.40439353
vn -0.60521617 0.68569618 0.40439353
vn -0.67248162 -0.68569594 0.27854900
vn -0.67248162 0.68569594 0.27854900
vn -0.71390106 -0.68569714 0.14200249
vn -0.71390106 0.68569714 0.14200249
vn -0.72788793 -0.68569612 -0.00000000
vn -0.72788793 0.68569612 -0.00000000
vn -0.71390123 -0.68569647 -0.14200489
vn -0.71390123 0.68569647 -0.14200489
vn -0.67248015 -0.68569661 -0.27855090
vn -0.67248015 0.68569661 -0.27855090
vn -0.60521656 -0.68569652 -0.40439238
vn -0.60521656 0.68569652 -0.40439238
vn -0.51469364 -0.68569587 -0.51469567
vn -0.51469364 0.68569587 -0.51469567
vn -0.40439096 -0.68569694 -0.60521703
vn -0.40439096 0.68569694 -0.60521703
vn -0.27855090 -0.68569661 -0.67248015
vn -0.27855090 0.68569661 -0.67248015
vn -0.14200334 -0.68569599 -0.71390200
vn -0.14200334 0.68569599 -0.71390200
vn 0.00000229 0.00000000 -1.00000000
vn 0.19508939 0.00000000 -0.98078547
vn 0.38268177 0.00000000 -0.92388022
vn 0.55556985 0.00000000 -0.83146987
vn 0.70710678 0.00000000 -0.70710678
vn 0.83146987 0.00000000 -0.55556985
vn 0.92388022 0.00000000 -0.38268177
vn 0.98078547 0.00000000 -0.19508939
vn 1.00000000 0.00000000 -0.00000000
vn 0.98078547 0.00000000 0.19508939
vn 0.92388022 0.00000000 0.38268177
vn 0.83146987 0.00000000 0.55556985
vn 0.70710678 0.00000000 0.70710678
vn 0.55556985 0.00000000 0.83146987
vn 0.38268177 0.00000000 0.92388022
vn 0.19508939 0.00000000 0.98078547
vn 0.00000025 0.00000000 1.00000000
vn -0.19509154 0.00000000 0.98078504
vn -0.38268402 0.00000000 0.92387929
vn -0.55557120 0.00000000 0.83146897
vn -0.70710678 0.00000000 0.70710678
vn -0.83146897 0.00000000 0.55557120
vn -0.92388051 0.00000000 0.38268108
vn -0.98078561 0.00000000 0.19508866
vn -1.00000000 0.00000000 0.00000000
vn -0.98078499 0.00000000 -0.19509178
vn -0.92387929 0.00000000 -0.38268402
vn -0.83146987 0.00000000 -0.55556985
vn -0.70710539 0.00000000 -0.70710818
vn -0.55556821 0.00000000 -0.83147096
vn -0.38268402 0.00000000 -0.92387929
vn -0.19508954 0.00000000 -0.98078544
vn 0.19508939 0.00000000 -0.98078547
vn 0.38268177 0.00000000 -0.92388022
vn 0.55556985 0.00000000 -0.83146987
vn 0.70710678 0.00000000 -0.70710678
vn 0.83146987 0.00000000 -0.55556985
vn 0.92388022 0.00000000 -0.38268177
vn 0.98078547 0.00000000 -0.19508939
vn 1.00000000 0.00000000 0.00000000
vn 0.98078547 0.00000000 0.19508939
vn 0.92388022 0.00000000 0.38268177
vn 0.83146987 0.00000000 0.55556985
vn 0.70710678 0.00000000 0.70710678
vn 0.55556985 0.00000000 0.83146987
vn 0.38268177 0.00000000 0.92388022
vn 0.19508939 0.00000000 0.98078547
vn 0.00000025 0.00000000 1.00000000
vn -0.19509154 0.00000000 0.98078504
vn -0.38268402 0.00000000 0.92387929
vn -0.55557120 0.00000000 0.83146897
vn -0.70710678 0.00000000 0.70710678
vn -0.83146897 0.00000000 0.55557120
vn -0.92388051 0.00000000 0.38268108
vn -0.98078561 0.00000000 0.19508866
vn -1.00000000 0.00000000 -0.00000000
vn -0.98078499 0.00000000 -0.19509178
vn -0.92387929 0.00000000 -0.38268402
vn -0.83146987 0.00000000 -0.55556985
vn -0.70710539 0.00000000 -0.70710818
vn -0.55556821 0.00000000 -0.83147096
vn -0.38268402 0.00000000 -0.92387929
vn -0.19508954 0.00000000 -0.98078544
vn 0.00000229 0.00000000 -1.00000000
vn 0.00000000 1.00000000 0.00000000
vn 0.00000000 1.00000000 0.00000000
vn 0.00000000 1.00000000 0.00000000
vn 0.00000000 1.00000000 0.00000000
vn 0.00000000 1.00000000 0.00000000
vn 0.00000000 1.00000000 0.00000000
vn 0.00000000 1.00000000 0.00000000
vn 0.00000000 1.00000000 0.00000000
vn 0.00000000 1.00000000 0.00000000
vn 0.00000000 1.00000000 0.00000000
vn 0.00000000 1.00000000 0.00000000
vn 0.00000000 1.00000000 0.00000000
vn 0.00000000 1.00000000 0.00000000
vn 0.00000000 1.00000000 0.00000000
vn 0.00000000 1.00000000 0.00000000
vn 0.00000000 1.00000000 0.00000000
vn 0.00000000 1.00000000 0.00000000
vn 0.00000000 1.00000000 0.00000000
vn 0.00000000 1.00000000 0.00000000
vn 0.00000000 1.00000000 0.00000000
vn 0.00000000 1.00000000 0.00000000
vn 0.00000000 1.00000000 0.00000000
vn 0.00000000 1.00000000 0.00000000
vn 0.00000000 1.00000000 0.00000000
vn 0.00000000 1.00000000 0.00000000
vn 0.00000000 1.00000000 0.00000000
vn 0.00000000 1.00000000 0.00000000
vn 0.00000000 1.00000000 0.00000000
vn 0.00000000 1.00000000 0.00000000
vn 0.00000000 1.00000000 0.00000000
vn 0.00000000 1.00000000 0.00000000
vn 0.00000000 1.00000000 0.00000000
vn 0.00000000 -1.00000000 0.00000000
vn 0.00000000 -1.00000000 0.00000000
vn 0.00000000 -1.00000000 0.00000000
vn 0.00000000 -1.00000000 0.00000000
vn 0.00000000 -1.00000000 0.00000000
vn 0.00000000 -1.00000000 0.00000000
vn 0.00000000 -1.00000000 0.00000000
vn 0.00000000 -1.00000000 0.00000000
vn 0.00000000 -1.00000000 0.00000000
vn 0.00000000 -1.00000000 0.00000000
vn 0.00000000 -1.00000000 0.00000000
vn 0.00000000 -1.00000000 0.00000000
vn 0.00000000 -1.00000000 0.00000000
vn 0.00000000 -1.00000000 0.00000000
vn 0.00000000 -1.00000000 0.00000000
vn 0.00000000 -1.00000000 0.00000000
vn 0.00000000 -1.00000000 0.00000000
vn 0.00000000 -1.00000000 0.00000000
vn 0.00000000 -1.00000000 0.00000000
vn 0.00000000 -1.00000000 0.00000000
vn 0.00000000 -1.00000000 0.00000000
vn 0.00000000 -1.00000000 0.00000000
vn 0.00000000 -1.00000000 0.00000000
vn 0.00000000 -1.00000000 0.00000000
vn 0.00000000 -1.00000000 0.00000000
vn 0.00000000 -1.00000000 0.00000000
vn 0.00000000 -1.00000000 0.00000000
vn 0.00000000 -1.00000000 0.00000000
vn 0.00000000 -1.00000000 0.00000000
vn 0.00000000 -1.00000000 0.00000000
vn 0.00000000 -1.00000000 0.00000000
vn 0.00000000 -1.00000000 0.00000000
f 2//2 66//66 65//65
f 4//4 67//67 66//66
f 6//6 68//68 67//67
f 8//8 69//69 68//68
f 10//10 70//70 69//69
f 12//12 71//71 70//70
f 14//14 72//72 71//71
f 16//16 73//73 72//72
f 18//18 74//74 73//73
f 20//20 75//75 74//74
f 22//22 76//76 75//75
f 24//24 77//77 76//76
f 26//26 78//78 77//77
f 28//28 79//79 78//78
f 30//30 80//80 79//79
f 32//32 81//81 80//80
f 34//34 82//82 81//81
f 36//36 83//83 82//82
f 38//38 84//84 83//83
f 40//40 85//85 84//84
f 42//42 86//86 85//85
f 44//44 87//87 86//86
f 46//46 88//88 87//87
f 48//48 89//89 88//88
f 50//50 90//90 89//89
f 52//52 91//91 90//90
f 54//54 92//92 91//91
f 56//56 93//93 92//92
f 58//58 94//94 93//93
f 60//60 95//95 94//94
f 42//42 150//150 44//44
f 62//62 96//96 95//95
f 64//64 65//65 96//96
f 15//15 169//169 168//168
f 96//96 128//128 127//127
f 95//95 127//127 126//126
f 94//94 126//126 125//125
f 93//93 125//125 124//124
f 92//92 124//124 123//123
f 91//91 123//123 122//122
f 90//90 122//122 121//121
f 89//89 121//121 120//120
f 88//88 120//120 119//119
f 87//87 119//119 118//118
f 86//86 118//118 117//117
f 85//85 117//117 116//116
f 84//84 116//116 115//115
f 83//83 115//115 114//114
f 82//82 114//114 113//113
f 81//81 113//113 112//112
f 80//80 112//112 111//111
f 79//79 111//111 110//110
f 78//78 110//110 109//109
f 77//77 109//109 108//108
f 76//76 108//108 107//107
f 75//75 107//107 106//106
f 74//74 106//106 105//105
f 73//73 105//105 104//104
f 72//72 104//104 103//103
f 71//71 103//103 102//102
f 70//70 102//102 101//101
f 69//69 101//101 100//100
f 68//68 100//100 99//99
f 67//67 99//99 98//98
f 66//66 98//98 97//97
f 65//65 97//97 128//128
f 128//128 3//3 1//1
f 97//97 5//5 3//3
f 98//98 7//7 5//5
f 99//99 9//9 7//7
f 100//100 11//11 9//9
f 101//101 13//13 11//11
f 102//102 15//15 13//13
f 103//103 17//17 15//15
f 104//104 19//19 17//17
f 105//105 21//21 19//19
f 106//106 23//23 21//21
f 107//107 25//25 23//23
f 108//108 27//27 25//25
f 109//109 29//29 27//27
f 110//110 31//31 29//29
f 111//111 33//33 31//31
f 112//112 35//35 33//33
f 113//113 37//37 35//35
f 114//114 39//39 37//37
f 115//115 41//41 39//39
f 116//116 43//43 41//41
f 117//117 45//45 43//43
f 118//118 47//47 45//45
f 119//119 49//49 47//47
f 120//120 51//51 49//49
f 121//121 53//53 51//51
f 122//122 55//55 53//53
f 123//123 57//57 55//55
f 124//124 59//59 57//57
f 125//125 61//61 59//59
f 126//126 63//63 61//61
f 127//127 1//1 63//63
f 143//143 139//139 131//131
f 62//62 158//158 159//159
f 16//16 137//137 18//18
f 34//34 146//146 36//36
f 52//52 155//155 54//54
f 10//10 132//132 133//133
f 26//26 142//142 28//28
f 44//44 151//151 46//46
f 62//62 160//160 64//64
f 18//18 138//138 20//20
f 38//38 146//146 147//147
f 56//56 155//155 156//156
f 10//10 134//134 12//12
f 28//28 143//143 30//30
f 48//48 151//151 152//152
f 2//2 130//130 4//4
f 2//2 160//160 129//129
f 20//20 139//139 22//22
f 38//38 148//148 40//40
f 58//58 156//156 157//157
f 14//14 134//134 135//135
f 30//30 144//144 32//32
f 48//48 153//153 50//50
f 4//4 131//131 6//6
f 22//22 140//140 24//24
f 40//40 149//149 42//42
f 60//60 157//157 158//158
f 14//14 136//136 16//16
f 32//32 145//145 34//34
f 52//52 153//153 154//154
f 6//6 132//132 8//8
f 26//26 140//140 141//141
f 180//180 184//184 192//192
f 33//33 178//178 177//177
f 51//51 187//187 186//186
f 9//9 164//164 7//7
f 25//25 174//174 173//173
f 43//43 183//183 182//182
f 63//63 191//191 61//61
f 17//17 170//170 169//169
f 35//35 179//179 178//178
f 53//53 188//188 187//187
f 9//9 166//166 165//165
f 29//29 174//174 27//27
f 47//47 183//183 45//45
f 1//1 162//162 161//161
f 1//1 192//192 63//63
f 21//21 170//170 19//19
f 37//37 180//180 179//179
f 57//57 188//188 55//55
f 13//13 166//166 11//11
f 31//31 175//175 29//29
f 47//47 185//185 184//184
f 5//5 162//162 3//3
f 23//23 171//171 21//21
f 39//39 181//181 180//180
f 59//59 189//189 57//57
f 13//13 168//168 167//167
f 33//33 176//176 31//31
f 51//51 185//185 49//49
f 5//5 164//164 163//163
f 25//25 172//172 23//23
f 43//43 181//181 41//41
f 61//61 190//190 59//59
f 2//2 4//4 66//66
f 4//4 6//6 67//67
f 6//6 8//8 68//68
f 8//8 10//10 69//69
f 10//10 12//12 70//70
f 12//12 14//14 71//71
f 14//14 16//16 72//72
f 16//16 18//18 73//73
f 18//18 20//20 74//74
f 20//20 22//22 75//75
f 22//22 24//24 76//76
f 24//24 26//26 77//77
f 26//26 28//28 78//78
f 28//28 30//30 79//79
f 30//30 32//32 80//80
f 32//32 34//34 81//81
f 34//34 36//36 82//82
f 36//36 38//38 83//83
f 38//38 40//40 84//84
f 40//40 42//42 85//85
f 42//42 44//44 86//86
f 44//44 46//46 87//87
f 46//46 48//48 88//88
f 48//48 50//50 89//89
f 50//50 52//52 90//90
f 52//52 54//54 91//91
f 54//54 56//56 92//92
f 56//56 58//58 93//93
f 58//58 60//60 94//94
f 60//60 62//62 95//95
f 42//42 149//149 150//150
f 62//62 64//64 96//96
f 64//64 2//2 65//65
f 15//15 17//17 169//169
f 96//96 65//65 128//128
f 95//95 96//96 127//127
f 94//94 95//95 126//126
f 93//93 94//94 125//125
f 92//92 93//93 124//124
f 91//91 92//92 123//123
f 90//90 91//91 122//122
f 89//89 90//90 121//121
f 88//88 89//89 120//120
f 87//87 88//88 119//119
f 86//86 87//87 118//118
f 85//85 86//86 117//117
f 84//84 85//85 116//116
f 83//83 84//84 115//115
f 82//82 83//83 114//114
f 81//81 82//82 113//113
f 80//80 81//81 112//112
f 79//79 80//80 111//111
f 78//78 79//79 110//110
f 77//77 78//78 109//109
f 76//76 77//77 108//108
f 75//75 76//76 107//107
f 74//74 75//75 106//106
f 73//73 74//74 105//105
f 72//72 73//73 104//104
f 71//71 72//72 103//103
f 70//70 71//71 102//102
f 69//69 70//70 101//101
f 68//68 69//69 100//100
f 67//67 68//68 99//99
f 66//66 67//67 98//98
f 65//65 66//66 97//97
f 128//128 97//97 3//3
f 97//97 98//98 5//5
f 98//98 99//99 7//7
f 99//99 100//100 9//9
f 100//100 101//101 11//11
f 101//101 102//102 13//13
f 102//102 103//103 15//15
f 103//103 104//104 17//17
f 104//104 105//105 19//19
f 105//105 106//106 21//21
f 106//106 107//107 23//23
f 107//107 108//108 25//25
f 108//108 109//109 27//27
f 109//109 110//110 29//29
f 110//110 111//111 31//31
f 111//111 112//112 33//33
f 112//112 113//113 35//35
f 113//113 114//114 37//37
f 114//114 115//115 39//39
f 115//115 116//116 41//41
f 116//116 117//117 43//43
f 117//117 118//118 45//45
f 118//118 119//119 47//47
f 119//119 120//120 49//49
f 120//120 121//121 51//51
f 121//121 122//122 53//53
f 122//122 123//123 55//55
f 123//123 124//124 57//57
f 124//124 125//125 59//59
f 125//125 126//126 61//61
f 126//126 127//127 63//63
f 127//127 128//128 1//1
f 131//131 130//130 159//159
f 129//129 160//160 159//159
f 159//159 158//158 157//157
f 157//157 156//156 155//155
f 155//155 154//154 151//151
f 153//153 152//152 151//151
f 151//151 150//150 149//149
f 149//149 148//148 151//151
f 147//147 146//146 145//145
f 145//145 144//144 143//143
f 143//143 142//142 141//141
f 141//141 140//140 143//143
f 139//139 138//138 137//137
f 137//137 136//136 135//135
f 135//135 134//134 133//133
f 133//133 132//132 131//131
f 130//130 129//129 159//159
f 159//159 157//157 155//155
f 154//154 153//153 151//151
f 151//151 148//148 147//147
f 147//147 145//145 143//143
f 143//143 140//140 139//139
f 139//139 137//137 135//135
f 135//135 133//133 139//139
f 131//131 159//159 147//147
f 155//155 151//151 147//147
f 147//147 143//143 131//131
f 139//139 133//133 131//131
f 159//159 155//155 147//147
f 62//62 60//60 158//158
f 16//16 136//136 137//137
f 34//34 145//145 146//146
f 52//52 154//154 155//155
f 10//10 8//8 132//132
f 26//26 141//141 142//142
f 44//44 150//150 151//151
f 62//62 159//159 160//160
f 18//18 137//137 138//138
f 38//38 36//36 146//146
f 56//56 54//54 155//155
f 10//10 133//133 134//134
f 28//28 142//142 143//143
f 48//48 46//46 151//151
f 2//2 129//129 130//130
f 2//2 64//64 160//160
f 20//20 138//138 139//139
f 38//38 147//147 148//148
f 58//58 56//56 156//156
f 14//14 12//12 134//134
f 30//30 143//143 144//144
f 48//48 152//152 153//153
f 4//4 130//130 131//131
f 22//22 139//139 140//140
f 40//40 148//148 149//149
f 60//60 58//58 157//157
f 14//14 135//135 136//136
f 32//32 144//144 145//145
f 52//52 50//50 153//153
f 6//6 131//131 132//132
f 26//26 24//24 140//140
f 192//192 161//161 162//162
f 162//162 163//163 164//164
f 164//164 165//165 166//166
f 166//166 167//167 164//164
f 168//168 169//169 170//170
f 170//170 171//171 168//168
f 172//172 173//173 176//176
f 174//174 175//175 176//176
f 176//176 177//177 180//180
f 178//178 179//179 180//180
f 180//180 181//181 182//182
f 182//182 183//183 184//184
f 184//184 185//185 186//186
f 186//186 187//187 188//188
f 188//188 189//189 192//192
f 190//190 191//191 192//192
f 192//192 162//162 164//164
f 164//164 167//167 168//168
f 168//168 171//171 172//172
f 173//173 174//174 176//176
f 177//177 178//178 180//180
f 180//180 182//182 184//184
f 184//184 186//186 192//192
f 189//189 190//190 192//192
f 192//192 164//164 176//176
f 168//168 172//172 176//176
f 176//176 180//180 192//192
f 186//186 188//188 192//192
f 164//164 168//168 176//176
f 33//33 35//35 178//178
f 51//51 53//53 187//187
f 9//9 165//165 164//164
f 25//25 27//27 174//174
f 43//43 45//45 183//183
f 63//63 192//192 191//191
f 17//17 19//19 170//170
f 35//35 37//37 179//179
f 53//53 55//55 188//188
f 9//9 11//11 166//166
f 29//29 175//175 174//174
f 47//47 184//184 183//183
f 1//1 3//3 162//162
f 1//1 161//161 192//192
f 21//21 171//171 170//170
f 37//37 39//39 180//180
f 57//57 189//189 188//188
f 13//13 167//167 166//166
f 31//31 176//176 175//175
f 47//47 49//49 185//185
f 5//5 163//163 162//162
f 23//23 172//172 171//171
f 39//39 41//41 181//181
f 59//59 190//190 189//189
f 13//13 15//15 168//168
f 33//33 177//177 176//176
f 51//51 186//186 185//185
f 5//5 7//7 164//164
f 25//25 173//173 172//172
f 43//43 182//182 181//181
f 61//61 191//191 190//190