o model
v 0 0.4 -0.4
v 0.078036 0.397126 -0.392314
v 0 0.397126 -0.4
v 0.078036 0.4 -0.392314
v 0.153073 0.397126 -0.369552
v 0.153073 0.4 -0.369552
v 0.222228 0.397126 -0.332588
v 0.222228 0.4 -0.332588
v 0.282843 0.397126 -0.282843
v 0.282843 0.4 -0.282843
v 0.332588 0.397126 -0.222228
v 0.332588 0.4 -0.222228
v 0.369552 0.397126 -0.153073
v 0.369552 0.4 -0.153073
v 0.392314 0.397126 -0.078036
v 0.392314 0.4 -0.078036
v 0.4 0.397126 0
v 0.4 0.4 0
v 0.392314 0.397126 0.078036
v 0.392314 0.4 0.078036
v 0.369552 0.397126 0.153073
v 0.369552 0.4 0.153073
v 0.332588 0.397126 0.222228
v 0.332588 0.4 0.222228
v 0.282843 0.397126 0.282843
v 0.282843 0.4 0.282843
v 0.222228 0.397126 0.332588
v 0.222228 0.4 0.332588
v 0.153073 0.397126 0.369552
v 0.153073 0.4 0.369552
v 0.078036 0.397126 0.392314
v 0.078036 0.4 0.392314
v 0 0.397126 0.4
v 0 0.4 0.4
v -0.0780364 0.397126 0.392314
v -0.0780364 0.4 0.392314
v -0.153074 0.397126 0.369552
v -0.153074 0.4 0.369552
v -0.222228 0.397126 0.332588
v -0.222228 0.4 0.332588
v -0.282843 0.397126 0.282842
v -0.282843 0.4 0.282842
v -0.332588 0.397126 0.222228
v -0.332588 0.4 0.222228
v -0.369552 0.397126 0.153073
v -0.369552 0.4 0.153073
v -0.392314 0.397126 0.0780356
v -0.392314 0.4 0.0780356
v -0.4 0.397126 -4e-07
v -0.4 0.4 -4e-07
v -0.392314 0.397126 -0.0780364
v -0.392314 0.4 -0.0780364
v -0.369552 0.397126 -0.153074
v -0.369552 0.4 -0.153074
v -0.332588 0.397126 -0.222228
v -0.332588 0.4 -0.222228
v -0.282842 0.397126 -0.282843
v -0.282842 0.4 -0.282843
v -0.222228 0.397126 -0.332588
v -0.222228 0.4 -0.332588
v -0.153073 0.397126 -0.369552
v -0.327352 0.4 0.21873
v -0.153073 0.4 -0.369552
v -0.0780356 0.397126 -0.392314
v -0.0780356 0.4 -0.392314
v 0.392314 -0.4 -0.078036
v 0.395644 -0.4 0
v 0.388041 -0.4 -0.0771864
v 0 -0.393417 -0.4
v -0.0780356 -0.393417 -0.392314
v -0.153073 -0.393417 -0.369552
v -0.222228 -0.393417 -0.332588
v -0.282842 -0.393417 -0.282843
v -0.332588 -0.393417 -0.222228
v -0.369552 -0.393417 -0.153074
v -0.392314 -0.393417 -0.0780364
v -0.4 -0.393417 -4e-07
v -0.392314 -0.393417 0.0780356
v -0.369552 -0.393417 0.153073
v -0.332588 -0.393417 0.222228
v -0.282843 -0.393417 0.282842
v -0.222228 -0.393417 0.332588
v -0.153074 -0.393417 0.369552
v -0.0780364 -0.393417 0.392314
v 0 -0.393417 0.4
v 0.078036 -0.393417 0.392314
v 0.153073 -0.393417 0.369552
v 0.222228 -0.393417 0.332588
v 0.282843 -0.393417 0.282843
v 0.332588 -0.393417 0.222228
v 0.369552 -0.393417 0.153073
v 0.392314 -0.393417 0.078036
v 0.4 -0.393417 0
v 0.392314 -0.393417 -0.078036
v 0.369552 -0.393417 -0.153073
v 0.332588 -0.393417 -0.222228
v 0.282843 -0.393417 -0.282843
v 0.222228 -0.393417 -0.332588
v 0.153073 -0.393417 -0.369552
v 0.078036 -0.393417 -0.392314
v 0.078036 -0.4 -0.392314
v 0 -0.4 -0.4
v 0.153073 -0.4 -0.369552
v 0.222228 -0.4 -0.332588
v 0.282843 -0.4 -0.282843
v 0.332588 -0.4 -0.222228
v 0.369552 -0.4 -0.153073
v 0.4 -0.4 0
v 0.392314 -0.4 0.078036
v 0.369552 -0.4 0.153073
v 0.332588 -0.4 0.222228
v 0.282843 -0.4 0.282843
v 0.222228 -0.4 0.332588
v 0.153073 -0.4 0.369552
v 0.078036 -0.4 0.392314
v 0 -0.4 0.4
v -0.0780364 -0.4 0.392314
v -0.153074 -0.4 0.369552
v -0.222228 -0.4 0.332588
v -0.282843 -0.4 0.282842
v -0.332588 -0.4 0.222228
v -0.369552 -0.4 0.153073
v -0.392314 -0.4 0.0780356
v -0.4 -0.4 -4e-07
v -0.392314 -0.4 -0.0780364
v -0.369552 -0.4 -0.153074
v -0.332588 -0.4 -0.222228
v -0.282842 -0.4 -0.282843
v -0.222228 -0.4 -0.332588
v -0.153073 -0.4 -0.369552
v -0.0780356 -0.4 -0.392314
v 0.150664 0.4 0.363734
v 0.363734 0.4 0.150664
v 0.150664 0.4 -0.363734
v -0.21873 0.4 -0.327353
v -0.150663 0.4 -0.363735
v 0.393703 0.4 0
v -0.076808 0.4 0.386138
v -0.363734 0.4 -0.150664
v 0.21873 0.4 -0.327352
v 0.27839 0.4 -0.27839
v 0.21873 0.4 0.327352
v -0.363734 0.4 0.150664
v -0.0768072 0.4 -0.386138
v 0.386138 0.4 0.0768076
v -0.150664 0.4 0.363734
v -0.327352 0.4 -0.21873
v 0.327352 0.4 -0.21873
v -0.386138 0.4 0.0768072
v 0.0768076 0.4 -0.386138
v 0 0.4 -0.393703
v -0.21873 0.4 0.327352
v -0.27839 0.4 -0.278391
v 0.363734 0.4 -0.150664
v 0.0768076 0.4 0.386138
v -0.393703 0.4 -4e-07
v 0.327352 0.4 0.21873
v -0.27839 0.4 0.27839
v 0.386138 0.4 -0.0768076
v 0 0.4 0.393703
v -0.386138 0.4 -0.076808
v 0.27839 0.4 0.27839
v -0.219808 -0.4 0.328966
v -0.388042 -0.4 0.077186
v -0.0771856 -0.4 -0.388042
v -0.0771864 -0.4 0.388041
v 0 -0.4 0.395644
v -0.365527 -0.4 -0.151407
v -0.388041 -0.4 -0.0771868
v 0.219808 -0.4 -0.328966
v 0.219808 -0.4 0.328966
v 0.279762 -0.4 0.279762
v -0.365527 -0.4 0.151406
v -0.328966 -0.4 0.219808
v -0.151406 -0.4 -0.365527
v 0.388042 -0.4 0.077186
v -0.151406 -0.4 0.365527
v -0.328965 -0.4 -0.219808
v 0.328966 -0.4 -0.219808
v 0.279762 -0.4 -0.279762
v 0.0771864 -0.4 -0.388041
v 0 -0.4 -0.395644
v 0.151406 -0.4 0.365527
v -0.395644 -0.4 -4e-07
v 0.365527 -0.4 0.151406
v -0.279762 -0.4 0.279762
v -0.279762 -0.4 -0.279763
v 0.365527 -0.4 -0.151406
v 0.077186 -0.4 0.388042
v 0.151406 -0.4 -0.365527
v 0.328966 -0.4 0.219808
v -0.219807 -0.4 -0.328966
vn 1.67e-06 0.685697 -0.727887
vn 0.195089 0 -0.980785
vn 2.29e-06 0 -1
vn 0.142003 0.685697 -0.713901
vn 0.382682 0 -0.92388
vn 0.278549 0.685696 -0.672481
vn 0.55557 0 -0.83147
vn 0.404392 0.685697 -0.605217
vn 0.707107 0 -0.707107
vn 0.514694 0.685696 -0.514694
vn 0.83147 0 -0.55557
vn 0.605217 0.685697 -0.404392
vn 0.92388 0 -0.382682
vn 0.672481 0.685696 -0.278549
vn 0.980785 0 -0.195089
vn 0.713901 0.685697 -0.142003
vn 1 0 0
vn 0.727888 0.685696 0
vn 0.980785 0 0.195089
vn 0.713901 0.685697 0.142003
vn 0.92388 0 0.382682
vn 0.672481 0.685696 0.278549
vn 0.83147 0 0.55557
vn 0.605217 0.685697 0.404392
vn 0.707107 0 0.707107
vn 0.514694 0.685696 0.514694
vn 0.55557 0 0.83147
vn 0.404392 0.685697 0.605217
vn 0.382682 0 0.92388
vn 0.278549 0.685696 0.672481
vn 0.195089 0 0.980785
vn 0.142003 0.685697 0.713901
vn 2.5e-07 0 1
vn 1.8e-07 0.685696 0.727888
vn -0.195092 0 0.980785
vn -0.142005 0.685696 0.713901
vn -0.382684 0 0.923879
vn -0.278551 0.685697 0.67248
vn -0.555571 0 0.831469
vn -0.404394 0.685696 0.605216
vn -0.707107 0 0.707107
vn -0.514694 0.685697 0.514694
vn -0.831469 0 0.555571
vn -0.605216 0.685696 0.404394
vn -0.923881 0 0.382681
vn -0.672482 0.685696 0.278549
vn -0.980786 0 0.195089
vn -0.713901 0.685697 0.142002
vn -1 0 0
vn -0.727888 0.685696 0
vn -0.980785 0 -0.195092
vn -0.713901 0.685696 -0.142005
vn -0.923879 0 -0.382684
vn -0.67248 0.685697 -0.278551
vn -0.83147 0 -0.55557
vn -0.605217 0.685697 -0.404392
vn -0.707105 0 -0.707108
vn -0.514694 0.685696 -0.514696
vn -0.555568 0 -0.831471
vn -0.404391 0.685697 -0.605217
vn -0.382684 0 -0.923879
vn 0 1 0
vn -0.278551 0.685697 -0.67248
vn -0.19509 0 -0.980785
vn -0.142003 0.685696 -0.713902
vn 0.713901 -0.685697 -0.142003
vn 0 -1 0
vn 0 -1 0
vn 2.29e-06 0 -1
vn -0.19509 0 -0.980785
vn -0.382684 0 -0.923879
vn -0.555568 0 -0.831471
vn -0.707105 0 -0.707108
vn -0.83147 0 -0.55557
vn -0.923879 0 -0.382684
vn -0.980785 0 -0.195092
vn -1 0 0
vn -0.980786 0 0.195089
vn -0.923881 0 0.382681
vn -0.831469 0 0.555571
vn -0.707107 0 0.707107
vn -0.555571 0 0.831469
vn -0.382684 0 0.923879
vn -0.195092 0 0.980785
vn 2.5e-07 0 1
vn 0.195089 0 0.980785
vn 0.382682 0 0.92388
vn 0.55557 0 0.83147
vn 0.707107 0 0.707107
vn 0.83147 0 0.55557
vn 0.92388 0 0.382682
vn 0.980785 0 0.195089
vn 1 0 0
vn 0.980785 0 -0.195089
vn 0.92388 0 -0.382682
vn 0.83147 0 -0.55557
vn 0.707107 0 -0.707107
vn 0.55557 0 -0.83147
vn 0.382682 0 -0.92388
vn 0.195089 0 -0.980785
vn 0.142003 -0.685697 -0.713901
vn 1.67e-06 -0.685697 -0.727887
vn 0.278549 -0.685696 -0.672481
vn 0.404392 -0.685697 -0.605217
vn 0.514694 -0.685696 -0.514694
vn 0.605217 -0.685697 -0.404392
vn 0.672481 -0.685696 -0.278549
vn 0.727888 -0.685696 0
vn 0.713901 -0.685697 0.142003
vn 0.672481 -0.685696 0.278549
vn 0.605217 -0.685697 0.404392
vn 0.514694 -0.685696 0.514694
vn 0.404392 -0.685697 0.605217
vn 0.278549 -0.685696 0.672481
vn 0.142003 -0.685697 0.713901
vn 1.8e-07 -0.685696 0.727888
vn -0.142005 -0.685696 0.713901
vn -0.278551 -0.685697 0.67248
vn -0.404394 -0.685696 0.605216
vn -0.514694 -0.685697 0.514694
vn -0.605216 -0.685696 0.404394
vn -0.672482 -0.685696 0.278549
vn -0.713901 -0.685697 0.142002
vn -0.727888 -0.685696 -0
vn -0.713901 -0.685696 -0.142005
vn -0.67248 -0.685697 -0.278551
vn -0.605217 -0.685697 -0.404392
vn -0.514694 -0.685696 -0.514696
vn -0.404391 -0.685697 -0.605217
vn -0.278551 -0.685697 -0.67248
vn -0.142003 -0.685696 -0.713902
vn 0 1 0
vn 0 1 0
vn 0 1 0
vn 0 1 0
vn 0 1 0
vn 0 1 0
vn 0 1 0
vn 0 1 0
vn 0 1 0
vn 0 1 0
vn 0 1 0
vn 0 1 0
vn 0 1 0
vn 0 1 0
vn 0 1 0
vn 0 1 0
vn 0 1 0
vn 0 1 0
vn 0 1 0
vn 0 1 0
vn 0 1 0
vn 0 1 0
vn 0 1 0
vn 0 1 0
vn 0 1 0
vn 0 1 0
vn 0 1 0
vn 0 1 0
vn 0 1 0
vn 0 1 0
vn 0 1 0
vn 0 -1 0
vn 0 -1 0
vn 0 -1 0
vn 0 -1 0
vn 0 -1 0
vn 0 -1 0
vn 0 -1 0
vn 0 -1 0
vn 0 -1 0
vn 0 -1 0
vn 0 -1 0
vn 0 -1 0
vn 0 -1 0
vn 0 -1 0
vn 0 -1 0
vn 0 -1 0
vn 0 -1 0
vn 0 -1 0
vn 0 -1 0
vn 0 -1 0
vn 0 -1 0
vn 0 -1 0
vn 0 -1 0
vn 0 -1 0
vn 0 -1 0
vn 0 -1 0
vn 0 -1 0
vn 0 -1 0
vn 0 -1 0
vn 0 -1 0
f 1//1 2//2 3//3
f 4//4 5//5 2//2
f 6//6 7//7 5//5
f 8//8 9//9 7//7
f 10//10 11//11 9//9
f 12//12 13//13 11//11
f 14//14 15//15 13//13
f 16//16 17//17 15//15
f 18//18 19//19 17//17
f 20//20 21//21 19//19
f 22//22 23//23 21//21
f 24//24 25//25 23//23
f 26//26 27//27 25//25
f 28//28 29//29 27//27
f 30//30 31//31 29//29
f 32//32 33//33 31//31
f 34//34 35//35 33//33
f 36//36 37//37 35//35
f 38//38 39//39 37//37
f 40//40 41//41 39//39
f 42//42 43//43 41//41
f 44//44 45//45 43//43
f 46//46 47//47 45//45
f 48//48 49//49 47//47
f 50//50 51//51 49//49
f 52//52 53//53 51//51
f 54//54 55//55 53//53
f 56//56 57//57 55//55
f 58//58 59//59 57//57
f 60//60 61//61 59//59
f 42//42 62//62 44//44
f 63//63 64//64 61//61
f 65//65 3//3 64//64
f 66//66 67//67 68//68
f 64//64 69//69 70//70
f 61//61 70//70 71//71
f 59//59 71//71 72//72
f 57//57 72//72 73//73
f 55//55 73//73 74//74
f 53//53 74//74 75//75
f 51//51 75//75 76//76
f 49//49 76//76 77//77
f 47//47 77//77 78//78
f 45//45 78//78 79//79
f 43//43 79//79 80//80
f 41//41 80//80 81//81
f 39//39 81//81 82//82
f 37//37 82//82 83//83
f 35//35 83//83 84//84
f 33//33 84//84 85//85
f 31//31 85//85 86//86
f 29//29 86//86 87//87
f 27//27 87//87 88//88
f 25//25 88//88 89//89
f 23//23 89//89 90//90
f 21//21 90//90 91//91
f 19//19 91//91 92//92
f 17//17 92//92 93//93
f 15//15 93//93 94//94
f 13//13 94//94 95//95
f 11//11 95//95 96//96
f 9//9 96//96 97//97
f 7//7 97//97 98//98
f 5//5 98//98 99//99
f 2//2 99//99 100//100
f 3//3 100//100 69//69
f 69//69 101//101 102//102
f 100//100 103//103 101//101
f 99//99 104//104 103//103
f 98//98 105//105 104//104
f 97//97 106//106 105//105
f 96//96 107//107 106//106
f 95//95 66//66 107//107
f 94//94 108//108 66//66
f 93//93 109//109 108//108
f 92//92 110//110 109//109
f 91//91 111//111 110//110
f 90//90 112//112 111//111
f 89//89 113//113 112//112
f 88//88 114//114 113//113
f 87//87 115//115 114//114
f 86//86 116//116 115//115
f 85//85 117//117 116//116
f 84//84 118//118 117//117
f 83//83 119//119 118//118
f 82//82 120//120 119//119
f 81//81 121//121 120//120
f 80//80 122//122 121//121
f 79//79 123//123 122//122
f 78//78 124//124 123//123
f 77//77 125//125 124//124
f 76//76 126//126 125//125
f 75//75 127//127 126//126
f 74//74 128//128 127//127
f 73//73 129//129 128//128
f 72//72 130//130 129//129
f 71//71 131//131 130//130
f 70//70 102//102 131//131
f 132//132 133//133 134//134
f 63//63 135//135 136//136
f 16//16 137//137 18//18
f 34//34 138//138 36//36
f 52//52 139//139 54//54
f 10//10 140//140 141//141
f 26//26 142//142 28//28
f 44//44 143//143 46//46
f 63//63 144//144 65//65
f 18//18 145//145 20//20
f 38//38 138//138 146//146
f 56//56 139//139 147//147
f 10//10 148//148 12//12
f 28//28 132//132 30//30
f 48//48 143//143 149//149
f 1//1 150//150 4//4
f 1//1 144//144 151//151
f 20//20 133//133 22//22
f 38//38 152//152 40//40
f 58//58 147//147 153//153
f 14//14 148//148 154//154
f 30//30 155//155 32//32
f 48//48 156//156 50//50
f 4//4 134//134 6//6
f 22//22 157//157 24//24
f 40//40 158//158 42//42
f 60//60 153//153 135//135
f 14//14 159//159 16//16
f 32//32 160//160 34//34
f 52//52 156//156 161//161
f 6//6 140//140 8//8
f 26//26 157//157 162//162
f 163//163 164//164 165//165
f 116//116 166//166 167//167
f 125//125 168//168 169//169
f 105//105 170//170 104//104
f 112//112 171//171 172//172
f 121//121 173//173 174//174
f 131//131 175//175 130//130
f 108//108 176//176 67//67
f 117//117 177//177 166//166
f 126//126 178//178 168//168
f 105//105 179//179 180//180
f 114//114 171//171 113//113
f 123//123 173//173 122//122
f 102//102 181//181 182//182
f 102//102 165//165 131//131
f 110//110 176//176 109//109
f 118//118 163//163 177//177
f 128//128 178//178 127//127
f 107//107 179//179 106//106
f 115//115 183//183 114//114
f 123//123 184//184 164//164
f 103//103 181//181 101//101
f 111//111 185//185 110//110
f 119//119 186//186 163//163
f 129//129 187//187 128//128
f 107//107 68//68 188//188
f 116//116 189//189 115//115
f 125//125 184//184 124//124
f 103//103 170//170 190//190
f 112//112 191//191 111//111
f 121//121 186//186 120//120
f 130//130 192//192 129//129
f 1//1 4//4 2//2
f 4//4 6//6 5//5
f 6//6 8//8 7//7
f 8//8 10//10 9//9
f 10//10 12//12 11//11
f 12//12 14//14 13//13
f 14//14 16//16 15//15
f 16//16 18//18 17//17
f 18//18 20//20 19//19
f 20//20 22//22 21//21
f 22//22 24//24 23//23
f 24//24 26//26 25//25
f 26//26 28//28 27//27
f 28//28 30//30 29//29
f 30//30 32//32 31//31
f 32//32 34//34 33//33
f 34//34 36//36 35//35
f 36//36 38//38 37//37
f 38//38 40//40 39//39
f 40//40 42//42 41//41
f 42//42 44//44 43//43
f 44//44 46//46 45//45
f 46//46 48//48 47//47
f 48//48 50//50 49//49
f 50//50 52//52 51//51
f 52//52 54//54 53//53
f 54//54 56//56 55//55
f 56//56 58//58 57//57
f 58//58 60//60 59//59
f 60//60 63//63 61//61
f 42//42 158//158 62//62
f 63//63 65//65 64//64
f 65//65 1//1 3//3
f 66//66 108//108 67//67
f 64//64 3//3 69//69
f 61//61 64//64 70//70
f 59//59 61//61 71//71
f 57//57 59//59 72//72
f 55//55 57//57 73//73
f 53//53 55//55 74//74
f 51//51 53//53 75//75
f 49//49 51//51 76//76
f 47//47 49//49 77//77
f 45//45 47//47 78//78
f 43//43 45//45 79//79
f 41//41 43//43 80//80
f 39//39 41//41 81//81
f 37//37 39//39 82//82
f 35//35 37//37 83//83
f 33//33 35//35 84//84
f 31//31 33//33 85//85
f 29//29 31//31 86//86
f 27//27 29//29 87//87
f 25//25 27//27 88//88
f 23//23 25//25 89//89
f 21//21 23//23 90//90
f 19//19 21//21 91//91
f 17//17 19//19 92//92
f 15//15 17//17 93//93
f 13//13 15//15 94//94
f 11//11 13//13 95//95
f 9//9 11//11 96//96
f 7//7 9//9 97//97
f 5//5 7//7 98//98
f 2//2 5//5 99//99
f 3//3 2//2 100//100
f 69//69 100//100 101//101
f 100//100 99//99 103//103
f 99//99 98//98 104//104
f 98//98 97//97 105//105
f 97//97 96//96 106//106
f 96//96 95//95 107//107
f 95//95 94//94 66//66
f 94//94 93//93 108//108
f 93//93 92//92 109//109
f 92//92 91//91 110//110
f 91//91 90//90 111//111
f 90//90 89//89 112//112
f 89//89 88//88 113//113
f 88//88 87//87 114//114
f 87//87 86//86 115//115
f 86//86 85//85 116//116
f 85//85 84//84 117//117
f 84//84 83//83 118//118
f 83//83 82//82 119//119
f 82//82 81//81 120//120
f 81//81 80//80 121//121
f 80//80 79//79 122//122
f 79//79 78//78 123//123
f 78//78 77//77 124//124
f 77//77 76//76 125//125
f 76//76 75//75 126//126
f 75//75 74//74 127//127
f 74//74 73//73 128//128
f 73//73 72//72 129//129
f 72//72 71//71 130//130
f 71//71 70//70 131//131
f 70//70 69//69 102//102
f 134//134 150//150 136//136
f 151//151 144//144 136//136
f 136//136 135//135 153//153
f 153//153 147//147 139//139
f 139//139 161//161 143//143
f 156//156 149//149 143//143
f 143//143 62//62 158//158
f 158//158 152//152 143//143
f 146//146 138//138 160//160
f 160//160 155//155 132//132
f 132//132 142//142 162//162
f 162//162 157//157 132//132
f 133//133 145//145 137//137
f 137//137 159//159 154//154
f 154//154 148//148 141//141
f 141//141 140//140 134//134
f 150//150 151//151 136//136
f 136//136 153//153 139//139
f 161//161 156//156 143//143
f 143//143 152//152 146//146
f 146//146 160//160 132//132
f 132//132 157//157 133//133
f 133//133 137//137 154//154
f 154//154 141//141 133//133
f 134//134 136//136 146//146
f 139//139 143//143 146//146
f 146//146 132//132 134//134
f 133//133 141//141 134//134
f 136//136 139//139 146//146
f 63//63 60//60 135//135
f 16//16 159//159 137//137
f 34//34 160//160 138//138
f 52//52 161//161 139//139
f 10//10 8//8 140//140
f 26//26 162//162 142//142
f 44//44 62//62 143//143
f 63//63 136//136 144//144
f 18//18 137//137 145//145
f 38//38 36//36 138//138
f 56//56 54//54 139//139
f 10//10 141//141 148//148
f 28//28 142//142 132//132
f 48//48 46//46 143//143
f 1//1 151//151 150//150
f 1//1 65//65 144//144
f 20//20 145//145 133//133
f 38//38 146//146 152//152
f 58//58 56//56 147//147
f 14//14 12//12 148//148
f 30//30 132//132 155//155
f 48//48 149//149 156//156
f 4//4 150//150 134//134
f 22//22 133//133 157//157
f 40//40 152//152 158//158
f 60//60 58//58 153//153
f 14//14 154//154 159//159
f 32//32 155//155 160//160
f 52//52 50//50 156//156
f 6//6 134//134 140//140
f 26//26 24//24 157//157
f 165//165 182//182 181//181
f 181//181 190//190 170//170
f 170//170 180//180 179//179
f 179//179 188//188 170//170
f 68//68 67//67 176//176
f 176//176 185//185 68//68
f 191//191 172//172 189//189
f 171//171 183//183 189//189
f 189//189 167//167 163//163
f 166//166 177//177 163//163
f 163//163 186//186 174//174
f 174//174 173//173 164//164
f 164//164 184//184 169//169
f 169//169 168//168 178//178
f 178//178 187//187 165//165
f 192//192 175//175 165//165
f 165//165 181//181 170//170
f 170//170 188//188 68//68
f 68//68 185//185 191//191
f 172//172 171//171 189//189
f 167//167 166//166 163//163
f 163//163 174//174 164//164
f 164//164 169//169 165//165
f 187//187 192//192 165//165
f 165//165 170//170 189//189
f 68//68 191//191 189//189
f 189//189 163//163 165//165
f 169//169 178//178 165//165
f 170//170 68//68 189//189
f 116//116 117//117 166//166
f 125//125 126//126 168//168
f 105//105 180//180 170//170
f 112//112 113//113 171//171
f 121//121 122//122 173//173
f 131//131 165//165 175//175
f 108//108 109//109 176//176
f 117//117 118//118 177//177
f 126//126 127//127 178//178
f 105//105 106//106 179//179
f 114//114 183//183 171//171
f 123//123 164//164 173//173
f 102//102 101//101 181//181
f 102//102 182//182 165//165
f 110//110 185//185 176//176
f 118//118 119//119 163//163
f 128//128 187//187 178//178
f 107//107 188//188 179//179
f 115//115 189//189 183//183
f 123//123 124//124 184//184
f 103//103 190//190 181//181
f 111//111 191//191 185//185
f 119//119 120//120 186//186
f 129//129 192//192 187//187
f 107//107 66//66 68//68
f 116//116 167//167 189//189
f 125//125 169//169 184//184
f 103//103 104//104 170//170
f 112//112 172//172 191//191
f 121//121 174//174 186//186
f 130//130 175//175 192//192
