# Blender v2.82 (sub 7) OBJ File: ''
# www.blender.org
mtllib pyramid_subdiv.mtl
o pyramid_
v 0.000000 -0.382386 -0.000000
v -0.400000 -0.382386 -0.400000
v 0.400000 -0.382386 -0.400000
v -0.400000 -0.382386 -0.400000
v 0.000000 0.382386 0.000000
v 0.400000 -0.382386 -0.400000
v 0.400000 -0.382386 0.400000
v 0.400000 -0.382386 -0.400000
v 0.000000 0.382386 0.000000
v 0.400000 -0.382386 0.400000
v -0.400000 -0.382386 0.400000
v 0.400000 -0.382386 0.400000
v 0.000000 0.382386 0.000000
v -0.400000 -0.382386 0.400000
v -0.400000 -0.382386 0.400000
v 0.000000 0.382386 0.000000
v -0.400000 -0.382386 -0.400000
v 0.057143 -0.382386 -0.057143
v 0.114286 -0.382386 -0.114286
v 0.171429 -0.382386 -0.171429
v 0.228571 -0.382386 -0.228571
v 0.285714 -0.382386 -0.285714
v 0.342857 -0.382386 -0.342857
v -0.057143 -0.382386 -0.057143
v -0.114286 -0.382386 -0.114286
v -0.171429 -0.382386 -0.171429
v -0.228571 -0.382386 -0.228571
v -0.285714 -0.382386 -0.285714
v -0.342857 -0.382386 -0.342857
v -0.285714 -0.382386 -0.400000
v -0.171429 -0.382386 -0.400000
v -0.057143 -0.382386 -0.400000
v 0.057143 -0.382386 -0.400000
v 0.171429 -0.382386 -0.400000
v 0.285714 -0.382386 -0.400000
v -0.285714 -0.382386 -0.400000
v -0.171429 -0.382386 -0.400000
v -0.057143 -0.382386 -0.400000
v 0.057143 -0.382386 -0.400000
v 0.171429 -0.382386 -0.400000
v 0.285714 -0.382386 -0.400000
v -0.342857 -0.273133 -0.342857
v -0.285714 -0.163880 -0.285714
v -0.228571 -0.054627 -0.228571
v -0.171429 0.054627 -0.171429
v -0.114286 0.163880 -0.114286
v -0.057143 0.273133 -0.057143
v 0.057143 0.273133 -0.057143
v 0.114286 0.163880 -0.114286
v 0.171429 0.054627 -0.171429
v 0.228571 -0.054627 -0.228571
v 0.285714 -0.163880 -0.285714
v 0.342857 -0.273133 -0.342857
v 0.057143 -0.382386 0.057143
v 0.114286 -0.382386 0.114286
v 0.171429 -0.382386 0.171429
v 0.228571 -0.382386 0.228571
v 0.285714 -0.382386 0.285714
v 0.342857 -0.382386 0.342857
v 0.400000 -0.382386 -0.285714
v 0.400000 -0.382386 -0.171429
v 0.400000 -0.382386 -0.057143
v 0.400000 -0.382386 0.057143
v 0.400000 -0.382386 0.171429
v 0.400000 -0.382386 0.285714
v 0.400000 -0.382386 -0.285714
v 0.400000 -0.382386 -0.171429
v 0.400000 -0.382386 -0.057143
v 0.400000 -0.382386 0.057143
v 0.400000 -0.382386 0.171429
v 0.400000 -0.382386 0.285714
v 0.342857 -0.273133 -0.342857
v 0.285714 -0.163880 -0.285714
v 0.228571 -0.054627 -0.228571
v 0.171429 0.054627 -0.171429
v 0.114286 0.163880 -0.114286
v 0.057143 0.273133 -0.057143
v 0.057143 0.273133 0.057143
v 0.114286 0.163880 0.114286
v 0.171429 0.054627 0.171429
v 0.228571 -0.054627 0.228571
v 0.285714 -0.163880 0.285714
v 0.342857 -0.273133 0.342857
v -0.057143 -0.382386 0.057143
v -0.114286 -0.382386 0.114286
v -0.171429 -0.382386 0.171429
v -0.228571 -0.382386 0.228571
v -0.285714 -0.382386 0.285714
v -0.342857 -0.382386 0.342857
v 0.285714 -0.382386 0.400000
v 0.171429 -0.382386 0.400000
v 0.057143 -0.382386 0.400000
v -0.057143 -0.382386 0.400000
v -0.171429 -0.382386 0.400000
v -0.285714 -0.382386 0.400000
v 0.285714 -0.382386 0.400000
v 0.171429 -0.382386 0.400000
v 0.057143 -0.382386 0.400000
v -0.057143 -0.382386 0.400000
v -0.171429 -0.382386 0.400000
v -0.285714 -0.382386 0.400000
v 0.342857 -0.273133 0.342857
v 0.285714 -0.163880 0.285714
v 0.228571 -0.054627 0.228571
v 0.171429 0.054627 0.171429
v 0.114286 0.163880 0.114286
v 0.057143 0.273133 0.057143
v -0.057143 0.273133 0.057143
v -0.114286 0.163880 0.114286
v -0.171429 0.054627 0.171429
v -0.228571 -0.054627 0.228571
v -0.285714 -0.163880 0.285714
v -0.342857 -0.273133 0.342857
v -0.400000 -0.382386 -0.285714
v -0.400000 -0.382386 -0.171429
v -0.400000 -0.382386 -0.057143
v -0.400000 -0.382386 0.057143
v -0.400000 -0.382386 0.171429
v -0.400000 -0.382386 0.285714
v -0.400000 -0.382386 0.285714
v -0.400000 -0.382386 0.171429
v -0.400000 -0.382386 0.057143
v -0.400000 -0.382386 -0.057143
v -0.400000 -0.382386 -0.171429
v -0.400000 -0.382386 -0.285714
v -0.342857 -0.273133 0.342857
v -0.285714 -0.163880 0.285714
v -0.228571 -0.054627 0.228571
v -0.171429 0.054627 0.171429
v -0.114286 0.163880 0.114286
v -0.057143 0.273133 0.057143
v -0.057143 0.273133 -0.057143
v -0.114286 0.163880 -0.114286
v -0.171429 0.054627 -0.171429
v -0.228571 -0.054627 -0.228571
v -0.285714 -0.163880 -0.285714
v -0.342857 -0.273133 -0.342857
v -0.342857 -0.273133 -0.228571
v -0.342857 -0.273133 -0.114286
v -0.285714 -0.163880 -0.171429
v -0.342857 -0.273133 -0.000000
v -0.285714 -0.163880 -0.057143
v -0.228571 -0.054627 -0.114286
v -0.342857 -0.273133 0.114286
v -0.285714 -0.163880 0.057143
v -0.228571 -0.054627 -0.000000
v -0.171429 0.054627 -0.057143
v -0.342857 -0.273133 0.228571
v -0.285714 -0.163880 0.171429
v -0.228571 -0.054627 0.114286
v -0.171429 0.054627 0.057143
v -0.114286 0.163880 0.000000
v -0.342857 -0.382386 -0.228571
v -0.285714 -0.382386 -0.171429
v -0.342857 -0.382386 -0.114286
v -0.228571 -0.382386 -0.114286
v -0.285714 -0.382386 -0.057143
v -0.342857 -0.382386 -0.000000
v -0.171429 -0.382386 -0.057143
v -0.228571 -0.382386 -0.000000
v -0.285714 -0.382386 0.057143
v -0.342857 -0.382386 0.114286
v -0.114286 -0.382386 -0.000000
v -0.171429 -0.382386 0.057143
v -0.228571 -0.382386 0.114286
v -0.285714 -0.382386 0.171429
v -0.342857 -0.382386 0.228571
v -0.228571 -0.273133 0.342857
v -0.114286 -0.273133 0.342857
v -0.171429 -0.163880 0.285714
v -0.000000 -0.273133 0.342857
v -0.057143 -0.163880 0.285714
v -0.114286 -0.054627 0.228571
v 0.114286 -0.273133 0.342857
v 0.057143 -0.163880 0.285714
v -0.000000 -0.054627 0.228571
v -0.057143 0.054627 0.171429
v 0.228571 -0.273133 0.342857
v 0.171429 -0.163880 0.285714
v 0.114286 -0.054627 0.228571
v 0.057143 0.054627 0.171429
v -0.000000 0.163880 0.114286
v -0.228571 -0.382386 0.342857
v -0.171429 -0.382386 0.285714
v -0.114286 -0.382386 0.342857
v -0.114286 -0.382386 0.228571
v -0.057143 -0.382386 0.285714
v -0.000000 -0.382386 0.342857
v -0.057143 -0.382386 0.171429
v -0.000000 -0.382386 0.228571
v 0.057143 -0.382386 0.285714
v 0.114286 -0.382386 0.342857
v -0.000000 -0.382386 0.114286
v 0.057143 -0.382386 0.171429
v 0.114286 -0.382386 0.228571
v 0.171429 -0.382386 0.285714
v 0.228571 -0.382386 0.342857
v 0.342857 -0.273133 0.228571
v 0.342857 -0.273133 0.114286
v 0.285714 -0.163880 0.171429
v 0.342857 -0.273133 -0.000000
v 0.285714 -0.163880 0.057143
v 0.228571 -0.054627 0.114286
v 0.342857 -0.273133 -0.114286
v 0.285714 -0.163880 -0.057143
v 0.228571 -0.054627 0.000000
v 0.171429 0.054627 0.057143
v 0.342857 -0.273133 -0.228571
v 0.285714 -0.163880 -0.171429
v 0.228571 -0.054627 -0.114286
v 0.171429 0.054627 -0.057143
v 0.114286 0.163880 0.000000
v 0.342857 -0.382386 0.228571
v 0.285714 -0.382386 0.171429
v 0.342857 -0.382386 0.114286
v 0.228571 -0.382386 0.114286
v 0.285714 -0.382386 0.057143
v 0.342857 -0.382386 -0.000000
v 0.171429 -0.382386 0.057143
v 0.228571 -0.382386 -0.000000
v 0.285714 -0.382386 -0.057143
v 0.342857 -0.382386 -0.114286
v 0.114286 -0.382386 -0.000000
v 0.171429 -0.382386 -0.057143
v 0.228571 -0.382386 -0.114286
v 0.285714 -0.382386 -0.171429
v 0.342857 -0.382386 -0.228571
v 0.228571 -0.273133 -0.342857
v 0.114286 -0.273133 -0.342857
v 0.171429 -0.163880 -0.285714
v 0.000000 -0.273133 -0.342857
v 0.057143 -0.163880 -0.285714
v 0.114286 -0.054627 -0.228571
v -0.114286 -0.273133 -0.342857
v -0.057143 -0.163880 -0.285714
v 0.000000 -0.054627 -0.228571
v 0.057143 0.054627 -0.171429
v -0.228571 -0.273133 -0.342857
v -0.171429 -0.163880 -0.285714
v -0.114286 -0.054627 -0.228571
v -0.057143 0.054627 -0.171429
v 0.000000 0.163880 -0.114286
v 0.228571 -0.382386 -0.342857
v 0.171429 -0.382386 -0.285714
v 0.114286 -0.382386 -0.342857
v 0.114286 -0.382386 -0.228571
v 0.057143 -0.382386 -0.285714
v 0.000000 -0.382386 -0.342857
v 0.057143 -0.382386 -0.171429
v 0.000000 -0.382386 -0.228571
v -0.057143 -0.382386 -0.285714
v -0.114286 -0.382386 -0.342857
v 0.000000 -0.382386 -0.114286
v -0.057143 -0.382386 -0.171429
v -0.114286 -0.382386 -0.228571
v -0.171429 -0.382386 -0.285714
v -0.228571 -0.382386 -0.342857
vn 0.0000 -1.0000 0.0000
vn 0.0000 0.4635 -0.8861
vn 0.8861 0.4635 0.0000
vn 0.0000 0.4635 0.8861
vn -0.8861 0.4635 0.0000
usemtl Default_OBJ
s 1
f 1//1 24//1 18//1
f 4//2 42//2 36//2
f 1//1 18//1 54//1
f 8//3 72//3 66//3
f 1//1 54//1 84//1
f 12//4 102//4 96//4
f 1//1 84//1 24//1
f 15//5 126//5 120//5
f 125//5 137//5 17//5
f 124//5 138//5 125//5
f 123//5 139//5 124//5
f 122//5 141//5 123//5
f 121//5 144//5 122//5
f 120//5 148//5 121//5
f 125//5 138//5 137//5
f 138//5 136//5 137//5
f 124//5 139//5 138//5
f 139//5 140//5 138//5
f 138//5 140//5 136//5
f 140//5 135//5 136//5
f 123//5 141//5 139//5
f 141//5 142//5 139//5
f 139//5 142//5 140//5
f 142//5 143//5 140//5
f 140//5 143//5 135//5
f 143//5 134//5 135//5
f 122//5 144//5 141//5
f 144//5 145//5 141//5
f 141//5 145//5 142//5
f 145//5 146//5 142//5
f 142//5 146//5 143//5
f 146//5 147//5 143//5
f 143//5 147//5 134//5
f 147//5 133//5 134//5
f 121//5 148//5 144//5
f 148//5 149//5 144//5
f 144//5 149//5 145//5
f 149//5 150//5 145//5
f 145//5 150//5 146//5
f 150//5 151//5 146//5
f 146//5 151//5 147//5
f 151//5 152//5 147//5
f 147//5 152//5 133//5
f 152//5 132//5 133//5
f 120//5 126//5 148//5
f 126//5 127//5 148//5
f 148//5 127//5 149//5
f 127//5 128//5 149//5
f 149//5 128//5 150//5
f 128//5 129//5 150//5
f 150//5 129//5 151//5
f 129//5 130//5 151//5
f 151//5 130//5 152//5
f 130//5 131//5 152//5
f 152//5 131//5 132//5
f 131//5 16//5 132//5
f 29//1 114//1 2//1
f 28//1 153//1 29//1
f 27//1 154//1 28//1
f 26//1 156//1 27//1
f 25//1 159//1 26//1
f 24//1 163//1 25//1
f 29//1 153//1 114//1
f 153//1 115//1 114//1
f 28//1 154//1 153//1
f 154//1 155//1 153//1
f 153//1 155//1 115//1
f 155//1 116//1 115//1
f 27//1 156//1 154//1
f 156//1 157//1 154//1
f 154//1 157//1 155//1
f 157//1 158//1 155//1
f 155//1 158//1 116//1
f 158//1 117//1 116//1
f 26//1 159//1 156//1
f 159//1 160//1 156//1
f 156//1 160//1 157//1
f 160//1 161//1 157//1
f 157//1 161//1 158//1
f 161//1 162//1 158//1
f 158//1 162//1 117//1
f 162//1 118//1 117//1
f 25//1 163//1 159//1
f 163//1 164//1 159//1
f 159//1 164//1 160//1
f 164//1 165//1 160//1
f 160//1 165//1 161//1
f 165//1 166//1 161//1
f 161//1 166//1 162//1
f 166//1 167//1 162//1
f 162//1 167//1 118//1
f 167//1 119//1 118//1
f 24//1 84//1 163//1
f 84//1 85//1 163//1
f 163//1 85//1 164//1
f 85//1 86//1 164//1
f 164//1 86//1 165//1
f 86//1 87//1 165//1
f 165//1 87//1 166//1
f 87//1 88//1 166//1
f 166//1 88//1 167//1
f 88//1 89//1 167//1
f 167//1 89//1 119//1
f 89//1 11//1 119//1
f 101//4 113//4 14//4
f 100//4 168//4 101//4
f 99//4 169//4 100//4
f 98//4 171//4 99//4
f 97//4 174//4 98//4
f 96//4 178//4 97//4
f 101//4 168//4 113//4
f 168//4 112//4 113//4
f 100//4 169//4 168//4
f 169//4 170//4 168//4
f 168//4 170//4 112//4
f 170//4 111//4 112//4
f 99//4 171//4 169//4
f 171//4 172//4 169//4
f 169//4 172//4 170//4
f 172//4 173//4 170//4
f 170//4 173//4 111//4
f 173//4 110//4 111//4
f 98//4 174//4 171//4
f 174//4 175//4 171//4
f 171//4 175//4 172//4
f 175//4 176//4 172//4
f 172//4 176//4 173//4
f 176//4 177//4 173//4
f 173//4 177//4 110//4
f 177//4 109//4 110//4
f 97//4 178//4 174//4
f 178//4 179//4 174//4
f 174//4 179//4 175//4
f 179//4 180//4 175//4
f 175//4 180//4 176//4
f 180//4 181//4 176//4
f 176//4 181//4 177//4
f 181//4 182//4 177//4
f 177//4 182//4 109//4
f 182//4 108//4 109//4
f 96//4 102//4 178//4
f 102//4 103//4 178//4
f 178//4 103//4 179//4
f 103//4 104//4 179//4
f 179//4 104//4 180//4
f 104//4 105//4 180//4
f 180//4 105//4 181//4
f 105//4 106//4 181//4
f 181//4 106//4 182//4
f 106//4 107//4 182//4
f 182//4 107//4 108//4
f 107//4 13//4 108//4
f 89//1 95//1 11//1
f 88//1 183//1 89//1
f 87//1 184//1 88//1
f 86//1 186//1 87//1
f 85//1 189//1 86//1
f 84//1 193//1 85//1
f 89//1 183//1 95//1
f 183//1 94//1 95//1
f 88//1 184//1 183//1
f 184//1 185//1 183//1
f 183//1 185//1 94//1
f 185//1 93//1 94//1
f 87//1 186//1 184//1
f 186//1 187//1 184//1
f 184//1 187//1 185//1
f 187//1 188//1 185//1
f 185//1 188//1 93//1
f 188//1 92//1 93//1
f 86//1 189//1 186//1
f 189//1 190//1 186//1
f 186//1 190//1 187//1
f 190//1 191//1 187//1
f 187//1 191//1 188//1
f 191//1 192//1 188//1
f 188//1 192//1 92//1
f 192//1 91//1 92//1
f 85//1 193//1 189//1
f 193//1 194//1 189//1
f 189//1 194//1 190//1
f 194//1 195//1 190//1
f 190//1 195//1 191//1
f 195//1 196//1 191//1
f 191//1 196//1 192//1
f 196//1 197//1 192//1
f 192//1 197//1 91//1
f 197//1 90//1 91//1
f 84//1 54//1 193//1
f 54//1 55//1 193//1
f 193//1 55//1 194//1
f 55//1 56//1 194//1
f 194//1 56//1 195//1
f 56//1 57//1 195//1
f 195//1 57//1 196//1
f 57//1 58//1 196//1
f 196//1 58//1 197//1
f 58//1 59//1 197//1
f 197//1 59//1 90//1
f 59//1 7//1 90//1
f 71//3 83//3 10//3
f 70//3 198//3 71//3
f 69//3 199//3 70//3
f 68//3 201//3 69//3
f 67//3 204//3 68//3
f 66//3 208//3 67//3
f 71//3 198//3 83//3
f 198//3 82//3 83//3
f 70//3 199//3 198//3
f 199//3 200//3 198//3
f 198//3 200//3 82//3
f 200//3 81//3 82//3
f 69//3 201//3 199//3
f 201//3 202//3 199//3
f 199//3 202//3 200//3
f 202//3 203//3 200//3
f 200//3 203//3 81//3
f 203//3 80//3 81//3
f 68//3 204//3 201//3
f 204//3 205//3 201//3
f 201//3 205//3 202//3
f 205//3 206//3 202//3
f 202//3 206//3 203//3
f 206//3 207//3 203//3
f 203//3 207//3 80//3
f 207//3 79//3 80//3
f 67//3 208//3 204//3
f 208//3 209//3 204//3
f 204//3 209//3 205//3
f 209//3 210//3 205//3
f 205//3 210//3 206//3
f 210//3 211//3 206//3
f 206//3 211//3 207//3
f 211//3 212//3 207//3
f 207//3 212//3 79//3
f 212//3 78//3 79//3
f 66//3 72//3 208//3
f 72//3 73//3 208//3
f 208//3 73//3 209//3
f 73//3 74//3 209//3
f 209//3 74//3 210//3
f 74//3 75//3 210//3
f 210//3 75//3 211//3
f 75//3 76//3 211//3
f 211//3 76//3 212//3
f 76//3 77//3 212//3
f 212//3 77//3 78//3
f 77//3 9//3 78//3
f 59//1 65//1 7//1
f 58//1 213//1 59//1
f 57//1 214//1 58//1
f 56//1 216//1 57//1
f 55//1 219//1 56//1
f 54//1 223//1 55//1
f 59//1 213//1 65//1
f 213//1 64//1 65//1
f 58//1 214//1 213//1
f 214//1 215//1 213//1
f 213//1 215//1 64//1
f 215//1 63//1 64//1
f 57//1 216//1 214//1
f 216//1 217//1 214//1
f 214//1 217//1 215//1
f 217//1 218//1 215//1
f 215//1 218//1 63//1
f 218//1 62//1 63//1
f 56//1 219//1 216//1
f 219//1 220//1 216//1
f 216//1 220//1 217//1
f 220//1 221//1 217//1
f 217//1 221//1 218//1
f 221//1 222//1 218//1
f 218//1 222//1 62//1
f 222//1 61//1 62//1
f 55//1 223//1 219//1
f 223//1 224//1 219//1
f 219//1 224//1 220//1
f 224//1 225//1 220//1
f 220//1 225//1 221//1
f 225//1 226//1 221//1
f 221//1 226//1 222//1
f 226//1 227//1 222//1
f 222//1 227//1 61//1
f 227//1 60//1 61//1
f 54//1 18//1 223//1
f 18//1 19//1 223//1
f 223//1 19//1 224//1
f 19//1 20//1 224//1
f 224//1 20//1 225//1
f 20//1 21//1 225//1
f 225//1 21//1 226//1
f 21//1 22//1 226//1
f 226//1 22//1 227//1
f 22//1 23//1 227//1
f 227//1 23//1 60//1
f 23//1 3//1 60//1
f 41//2 53//2 6//2
f 40//2 228//2 41//2
f 39//2 229//2 40//2
f 38//2 231//2 39//2
f 37//2 234//2 38//2
f 36//2 238//2 37//2
f 41//2 228//2 53//2
f 228//2 52//2 53//2
f 40//2 229//2 228//2
f 229//2 230//2 228//2
f 228//2 230//2 52//2
f 230//2 51//2 52//2
f 39//2 231//2 229//2
f 231//2 232//2 229//2
f 229//2 232//2 230//2
f 232//2 233//2 230//2
f 230//2 233//2 51//2
f 233//2 50//2 51//2
f 38//2 234//2 231//2
f 234//2 235//2 231//2
f 231//2 235//2 232//2
f 235//2 236//2 232//2
f 232//2 236//2 233//2
f 236//2 237//2 233//2
f 233//2 237//2 50//2
f 237//2 49//2 50//2
f 37//2 238//2 234//2
f 238//2 239//2 234//2
f 234//2 239//2 235//2
f 239//2 240//2 235//2
f 235//2 240//2 236//2
f 240//2 241//2 236//2
f 236//2 241//2 237//2
f 241//2 242//2 237//2
f 237//2 242//2 49//2
f 242//2 48//2 49//2
f 36//2 42//2 238//2
f 42//2 43//2 238//2
f 238//2 43//2 239//2
f 43//2 44//2 239//2
f 239//2 44//2 240//2
f 44//2 45//2 240//2
f 240//2 45//2 241//2
f 45//2 46//2 241//2
f 241//2 46//2 242//2
f 46//2 47//2 242//2
f 242//2 47//2 48//2
f 47//2 5//2 48//2
f 23//1 35//1 3//1
f 22//1 243//1 23//1
f 21//1 244//1 22//1
f 20//1 246//1 21//1
f 19//1 249//1 20//1
f 18//1 253//1 19//1
f 23//1 243//1 35//1
f 243//1 34//1 35//1
f 22//1 244//1 243//1
f 244//1 245//1 243//1
f 243//1 245//1 34//1
f 245//1 33//1 34//1
f 21//1 246//1 244//1
f 246//1 247//1 244//1
f 244//1 247//1 245//1
f 247//1 248//1 245//1
f 245//1 248//1 33//1
f 248//1 32//1 33//1
f 20//1 249//1 246//1
f 249//1 250//1 246//1
f 246//1 250//1 247//1
f 250//1 251//1 247//1
f 247//1 251//1 248//1
f 251//1 252//1 248//1
f 248//1 252//1 32//1
f 252//1 31//1 32//1
f 19//1 253//1 249//1
f 253//1 254//1 249//1
f 249//1 254//1 250//1
f 254//1 255//1 250//1
f 250//1 255//1 251//1
f 255//1 256//1 251//1
f 251//1 256//1 252//1
f 256//1 257//1 252//1
f 252//1 257//1 31//1
f 257//1 30//1 31//1
f 18//1 24//1 253//1
f 24//1 25//1 253//1
f 253//1 25//1 254//1
f 25//1 26//1 254//1
f 254//1 26//1 255//1
f 26//1 27//1 255//1
f 255//1 27//1 256//1
f 27//1 28//1 256//1
f 256//1 28//1 257//1
f 28//1 29//1 257//1
f 257//1 29//1 30//1
f 29//1 2//1 30//1
