####
#
# OBJ File Generated by Meshlab
#
####
# Object plane2.obj
#
# Vertices: 144
# Faces: 242
#
####
mtllib ./plane2.obj.mtl

vn 0.000000 2.000000 0.000000
v -1.000000 0.000000 1.000000
vn 0.000000 1.000000 0.000000
v 1.000000 0.000000 1.000000
vn 0.000000 1.000000 0.000000
v -1.000000 0.000000 -1.000000
vn 0.000000 2.000000 0.000000
v 1.000000 0.000000 -1.000000
vn 0.000000 3.000000 0.000000
v -1.000000 0.000000 -0.818182
vn 0.000000 3.000000 0.000000
v -1.000000 0.000000 -0.636364
vn 0.000000 3.000000 0.000000
v -1.000000 0.000000 -0.454545
vn 0.000000 3.000000 0.000000
v -1.000000 0.000000 -0.272727
vn 0.000000 3.000000 0.000000
v -1.000000 0.000000 -0.090909
vn 0.000000 3.000000 0.000000
v -1.000000 0.000000 0.090909
vn 0.000000 3.000000 0.000000
v -1.000000 0.000000 0.272727
vn 0.000000 3.000000 0.000000
v -1.000000 0.000000 0.454545
vn 0.000000 3.000000 0.000000
v -1.000000 0.000000 0.636364
vn 0.000000 3.000000 0.000000
v -1.000000 0.000000 0.818182
vn 0.000000 3.000000 0.000000
v -0.818182 0.000000 1.000000
vn 0.000000 3.000000 0.000000
v -0.636364 0.000000 1.000000
vn 0.000000 3.000000 0.000000
v -0.454545 0.000000 1.000000
vn 0.000000 3.000000 0.000000
v -0.272727 0.000000 1.000000
vn 0.000000 3.000000 0.000000
v -0.090909 0.000000 1.000000
vn 0.000000 3.000000 0.000000
v 0.090909 0.000000 1.000000
vn 0.000000 3.000000 0.000000
v 0.272727 0.000000 1.000000
vn 0.000000 3.000000 0.000000
v 0.454545 0.000000 1.000000
vn 0.000000 3.000000 0.000000
v 0.636364 0.000000 1.000000
vn 0.000000 3.000000 0.000000
v 0.818182 0.000000 1.000000
vn 0.000000 3.000000 0.000000
v 1.000000 0.000000 0.818182
vn 0.000000 3.000000 0.000000
v 1.000000 0.000000 0.636364
vn 0.000000 3.000000 0.000000
v 1.000000 0.000000 0.454545
vn 0.000000 3.000000 0.000000
v 1.000000 0.000000 0.272727
vn 0.000000 3.000000 0.000000
v 1.000000 0.000000 0.090909
vn 0.000000 3.000000 0.000000
v 1.000000 0.000000 -0.090909
vn 0.000000 3.000000 0.000000
v 1.000000 0.000000 -0.272727
vn 0.000000 3.000000 0.000000
v 1.000000 0.000000 -0.454545
vn 0.000000 3.000000 0.000000
v 1.000000 0.000000 -0.636364
vn 0.000000 3.000000 0.000000
v 1.000000 0.000000 -0.818182
vn 0.000000 3.000000 0.000000
v 0.818182 0.000000 -1.000000
vn 0.000000 3.000000 0.000000
v 0.636364 0.000000 -1.000000
vn 0.000000 3.000000 0.000000
v 0.454545 0.000000 -1.000000
vn 0.000000 3.000000 0.000000
v 0.272727 0.000000 -1.000000
vn 0.000000 3.000000 0.000000
v 0.090909 0.000000 -1.000000
vn 0.000000 3.000000 0.000000
v -0.090909 0.000000 -1.000000
vn 0.000000 3.000000 0.000000
v -0.272727 0.000000 -1.000000
vn 0.000000 3.000000 0.000000
v -0.454545 0.000000 -1.000000
vn 0.000000 3.000000 0.000000
v -0.636364 0.000000 -1.000000
vn 0.000000 3.000000 0.000000
v -0.818182 0.000000 -1.000000
vn 0.000000 6.000000 0.000000
v -0.818182 0.000000 0.818182
vn 0.000000 6.000000 0.000000
v -0.818182 0.000000 0.636364
vn 0.000000 6.000000 0.000000
v -0.818182 0.000000 0.454545
vn 0.000000 6.000000 0.000000
v -0.818182 0.000000 0.272727
vn 0.000000 6.000000 0.000000
v -0.818182 0.000000 0.090909
vn 0.000000 6.000000 0.000000
v -0.818182 0.000000 -0.090909
vn 0.000000 6.000000 0.000000
v -0.818182 0.000000 -0.272727
vn 0.000000 6.000000 0.000000
v -0.818182 0.000000 -0.454545
vn 0.000000 6.000000 0.000000
v -0.818182 0.000000 -0.636364
vn 0.000000 6.000000 0.000000
v -0.818182 0.000000 -0.818182
vn 0.000000 6.000000 0.000000
v -0.636364 0.000000 0.818182
vn 0.000000 6.000000 0.000000
v -0.636364 0.000000 0.636364
vn 0.000000 6.000000 0.000000
v -0.636364 0.000000 0.454545
vn 0.000000 6.000000 0.000000
v -0.636364 0.000000 0.272727
vn 0.000000 6.000000 0.000000
v -0.636364 0.000000 0.090909
vn 0.000000 6.000000 0.000000
v -0.636364 0.000000 -0.090909
vn 0.000000 6.000000 0.000000
v -0.636364 0.000000 -0.272727
vn 0.000000 6.000000 0.000000
v -0.636364 0.000000 -0.454545
vn 0.000000 6.000000 0.000000
v -0.636364 0.000000 -0.636364
vn 0.000000 6.000000 0.000000
v -0.636364 0.000000 -0.818182
vn 0.000000 6.000000 0.000000
v -0.454545 0.000000 0.818182
vn 0.000000 6.000000 0.000000
v -0.454545 0.000000 0.636364
vn 0.000000 6.000000 0.000000
v -0.454545 0.000000 0.454545
vn 0.000000 6.000000 0.000000
v -0.454545 0.000000 0.272727
vn 0.000000 6.000000 0.000000
v -0.454545 0.000000 0.090909
vn 0.000000 6.000000 0.000000
v -0.454545 0.000000 -0.090909
vn 0.000000 6.000000 0.000000
v -0.454545 0.000000 -0.272727
vn 0.000000 6.000000 0.000000
v -0.454545 0.000000 -0.454545
vn 0.000000 6.000000 0.000000
v -0.454545 0.000000 -0.636364
vn 0.000000 6.000000 0.000000
v -0.454545 0.000000 -0.818182
vn 0.000000 6.000000 0.000000
v -0.272727 0.000000 0.818182
vn 0.000000 6.000000 0.000000
v -0.272727 0.000000 0.636364
vn 0.000000 6.000000 0.000000
v -0.272727 0.000000 0.454545
vn 0.000000 6.000000 0.000000
v -0.272727 0.000000 0.272727
vn 0.000000 6.000000 0.000000
v -0.272727 0.000000 0.090909
vn 0.000000 6.000000 0.000000
v -0.272727 0.000000 -0.090909
vn 0.000000 6.000000 0.000000
v -0.272727 0.000000 -0.272727
vn 0.000000 6.000000 0.000000
v -0.272727 0.000000 -0.454545
vn 0.000000 6.000000 0.000000
v -0.272727 0.000000 -0.636364
vn 0.000000 6.000000 0.000000
v -0.272727 0.000000 -0.818182
vn 0.000000 6.000000 0.000000
v -0.090909 0.000000 0.818182
vn 0.000000 6.000000 0.000000
v -0.090909 0.000000 0.636364
vn 0.000000 6.000000 0.000000
v -0.090909 0.000000 0.454545
vn 0.000000 6.000000 0.000000
v -0.090909 0.000000 0.272727
vn 0.000000 6.000000 0.000000
v -0.090909 0.000000 0.090909
vn 0.000000 6.000000 0.000000
v -0.090909 0.000000 -0.090909
vn 0.000000 6.000000 0.000000
v -0.090909 0.000000 -0.272727
vn 0.000000 6.000000 0.000000
v -0.090909 0.000000 -0.454545
vn 0.000000 6.000000 0.000000
v -0.090909 0.000000 -0.636364
vn 0.000000 6.000000 0.000000
v -0.090909 0.000000 -0.818182
vn 0.000000 6.000000 0.000000
v 0.090909 0.000000 0.818182
vn 0.000000 6.000000 0.000000
v 0.090909 0.000000 0.636364
vn 0.000000 6.000000 0.000000
v 0.090909 0.000000 0.454545
vn 0.000000 6.000000 0.000000
v 0.090909 0.000000 0.272727
vn 0.000000 6.000000 0.000000
v 0.090909 0.000000 0.090909
vn 0.000000 6.000000 0.000000
v 0.090909 0.000000 -0.090909
vn 0.000000 6.000000 0.000000
v 0.090909 0.000000 -0.272727
vn 0.000000 6.000000 0.000000
v 0.090909 0.000000 -0.454545
vn 0.000000 6.000000 0.000000
v 0.090909 0.000000 -0.636364
vn 0.000000 6.000000 0.000000
v 0.090909 0.000000 -0.818182
vn 0.000000 6.000000 0.000000
v 0.272727 0.000000 0.818182
vn 0.000000 6.000000 0.000000
v 0.272727 0.000000 0.636364
vn 0.000000 6.000000 0.000000
v 0.272727 0.000000 0.454545
vn 0.000000 6.000000 0.000000
v 0.272727 0.000000 0.272727
vn 0.000000 6.000000 0.000000
v 0.272727 0.000000 0.090909
vn 0.000000 6.000000 0.000000
v 0.272727 0.000000 -0.090909
vn 0.000000 6.000000 0.000000
v 0.272727 0.000000 -0.272727
vn 0.000000 6.000000 0.000000
v 0.272727 0.000000 -0.454545
vn 0.000000 6.000000 0.000000
v 0.272727 0.000000 -0.636364
vn 0.000000 6.000000 0.000000
v 0.272727 0.000000 -0.818182
vn 0.000000 6.000000 0.000000
v 0.454545 0.000000 0.818182
vn 0.000000 6.000000 0.000000
v 0.454545 0.000000 0.636364
vn 0.000000 6.000000 0.000000
v 0.454545 0.000000 0.454545
vn 0.000000 6.000000 0.000000
v 0.454545 0.000000 0.272727
vn 0.000000 6.000000 0.000000
v 0.454545 0.000000 0.090909
vn 0.000000 6.000000 0.000000
v 0.454545 0.000000 -0.090909
vn 0.000000 6.000000 0.000000
v 0.454545 0.000000 -0.272727
vn 0.000000 6.000000 0.000000
v 0.454545 0.000000 -0.454545
vn 0.000000 6.000000 0.000000
v 0.454545 0.000000 -0.636364
vn 0.000000 6.000000 0.000000
v 0.454545 0.000000 -0.818182
vn 0.000000 6.000000 0.000000
v 0.636364 0.000000 0.818182
vn 0.000000 6.000000 0.000000
v 0.636364 0.000000 0.636364
vn 0.000000 6.000000 0.000000
v 0.636364 0.000000 0.454545
vn 0.000000 6.000000 0.000000
v 0.636364 0.000000 0.272727
vn 0.000000 6.000000 0.000000
v 0.636364 0.000000 0.090909
vn 0.000000 6.000000 0.000000
v 0.636364 0.000000 -0.090909
vn 0.000000 6.000000 0.000000
v 0.636364 0.000000 -0.272727
vn 0.000000 6.000000 0.000000
v 0.636364 0.000000 -0.454545
vn 0.000000 6.000000 0.000000
v 0.636364 0.000000 -0.636364
vn 0.000000 6.000000 0.000000
v 0.636364 0.000000 -0.818182
vn 0.000000 6.000000 0.000000
v 0.818182 0.000000 0.818182
vn 0.000000 6.000000 0.000000
v 0.818182 0.000000 0.636364
vn 0.000000 6.000000 0.000000
v 0.818182 0.000000 0.454545
vn 0.000000 6.000000 0.000000
v 0.818182 0.000000 0.272727
vn 0.000000 6.000000 0.000000
v 0.818182 0.000000 0.090909
vn 0.000000 6.000000 0.000000
v 0.818182 0.000000 -0.090909
vn 0.000000 6.000000 0.000000
v 0.818182 0.000000 -0.272727
vn 0.000000 6.000000 0.000000
v 0.818182 0.000000 -0.454545
vn 0.000000 6.000000 0.000000
v 0.818182 0.000000 -0.636364
vn 0.000000 6.000000 0.000000
v 0.818182 0.000000 -0.818182
# 144 vertices, 0 vertices normals


usemtl material_0
vt 0.909091 0.909091
vt 1.000000 0.909091
vt 1.000000 1.000000
f 144/1/144 34/2/34 4/3/4
vt 0.909091 1.000000
f 144/1/144 4/3/4 35/4/35
vt 0.000000 0.909091
vt 0.090909 0.909091
vt 0.090909 1.000000
f 5/5/5 54/6/54 44/7/44
vt 0.000000 1.000000
f 5/5/5 44/7/44 3/8/3
vt 0.181818 0.909091
vt 0.181818 1.000000
f 54/6/54 64/9/64 43/10/43
f 54/6/54 43/10/43 44/7/44
vt 0.272727 0.909091
vt 0.272727 1.000000
f 64/9/64 74/11/74 42/12/42
f 64/9/64 42/12/42 43/10/43
vt 0.363636 0.909091
vt 0.363636 1.000000
f 74/11/74 84/13/84 41/14/41
f 74/11/74 41/14/41 42/12/42
vt 0.454545 0.909091
vt 0.454545 1.000000
f 84/13/84 94/15/94 40/16/40
f 84/13/84 40/16/40 41/14/41
vt 0.545455 0.909091
vt 0.545455 1.000000
f 94/15/94 104/17/104 39/18/39
f 94/15/94 39/18/39 40/16/40
vt 0.636364 0.909091
vt 0.636364 1.000000
f 104/17/104 114/19/114 38/20/38
f 104/17/104 38/20/38 39/18/39
vt 0.727273 0.909091
vt 0.727273 1.000000
f 114/19/114 124/21/124 37/22/37
f 114/19/114 37/22/37 38/20/38
vt 0.818182 0.909091
vt 0.818182 1.000000
f 124/21/124 134/23/134 36/24/36
f 124/21/124 36/24/36 37/22/37
f 134/23/134 144/1/144 35/4/35
f 134/23/134 35/4/35 36/24/36
vt 0.000000 0.000000
vt 0.090909 0.000000
vt 0.090909 0.090909
f 1/25/1 15/26/15 45/27/45
vt 0.000000 0.090909
f 1/25/1 45/27/45 14/28/14
vt 0.090909 0.181818
f 14/28/14 45/27/45 46/29/46
vt 0.000000 0.181818
f 14/28/14 46/29/46 13/30/13
vt 0.090909 0.272727
f 13/30/13 46/29/46 47/31/47
vt 0.000000 0.272727
f 13/30/13 47/31/47 12/32/12
vt 0.090909 0.363636
f 12/32/12 47/31/47 48/33/48
vt 0.000000 0.363636
f 12/32/12 48/33/48 11/34/11
vt 0.090909 0.454545
f 11/34/11 48/33/48 49/35/49
vt 0.000000 0.454545
f 11/34/11 49/35/49 10/36/10
vt 0.090909 0.545455
f 10/36/10 49/35/49 50/37/50
vt 0.000000 0.545455
f 10/36/10 50/37/50 9/38/9
vt 0.090909 0.636364
f 9/38/9 50/37/50 51/39/51
vt 0.000000 0.636364
f 9/38/9 51/39/51 8/40/8
vt 0.090909 0.727273
f 8/40/8 51/39/51 52/41/52
vt 0.000000 0.727273
f 8/40/8 52/41/52 7/42/7
vt 0.090909 0.818182
f 7/42/7 52/41/52 53/43/53
vt 0.000000 0.818182
f 7/42/7 53/43/53 6/44/6
f 6/44/6 53/43/53 54/6/54
f 6/44/6 54/6/54 5/5/5
vt 0.181818 0.000000
vt 0.181818 0.090909
f 15/26/15 16/45/16 55/46/55
f 15/26/15 55/46/55 45/27/45
vt 0.181818 0.181818
f 45/27/45 55/46/55 56/47/56
f 45/27/45 56/47/56 46/29/46
vt 0.181818 0.272727
f 46/29/46 56/47/56 57/48/57
f 46/29/46 57/48/57 47/31/47
vt 0.181818 0.363636
f 47/31/47 57/48/57 58/49/58
f 47/31/47 58/49/58 48/33/48
vt 0.181818 0.454545
f 48/33/48 58/49/58 59/50/59
f 48/33/48 59/50/59 49/35/49
vt 0.181818 0.545455
f 49/35/49 59/50/59 60/51/60
f 49/35/49 60/51/60 50/37/50
vt 0.181818 0.636364
f 50/37/50 60/51/60 61/52/61
f 50/37/50 61/52/61 51/39/51
vt 0.181818 0.727273
f 51/39/51 61/52/61 62/53/62
f 51/39/51 62/53/62 52/41/52
vt 0.181818 0.818182
f 52/41/52 62/53/62 63/54/63
f 52/41/52 63/54/63 53/43/53
f 53/43/53 63/54/63 64/9/64
f 53/43/53 64/9/64 54/6/54
vt 0.272727 0.000000
vt 0.272727 0.090909
f 16/45/16 17/55/17 65/56/65
f 16/45/16 65/56/65 55/46/55
vt 0.272727 0.181818
f 55/46/55 65/56/65 66/57/66
f 55/46/55 66/57/66 56/47/56
vt 0.272727 0.272727
f 56/47/56 66/57/66 67/58/67
f 56/47/56 67/58/67 57/48/57
vt 0.272727 0.363636
f 57/48/57 67/58/67 68/59/68
f 57/48/57 68/59/68 58/49/58
vt 0.272727 0.454545
f 58/49/58 68/59/68 69/60/69
f 58/49/58 69/60/69 59/50/59
vt 0.272727 0.545455
f 59/50/59 69/60/69 70/61/70
f 59/50/59 70/61/70 60/51/60
vt 0.272727 0.636364
f 60/51/60 70/61/70 71/62/71
f 60/51/60 71/62/71 61/52/61
vt 0.272727 0.727273
f 61/52/61 71/62/71 72/63/72
f 61/52/61 72/63/72 62/53/62
vt 0.272727 0.818182
f 62/53/62 72/63/72 73/64/73
f 62/53/62 73/64/73 63/54/63
f 63/54/63 73/64/73 74/11/74
f 63/54/63 74/11/74 64/9/64
vt 0.363636 0.000000
vt 0.363636 0.090909
f 17/55/17 18/65/18 75/66/75
f 17/55/17 75/66/75 65/56/65
vt 0.363636 0.181818
f 65/56/65 75/66/75 76/67/76
f 65/56/65 76/67/76 66/57/66
vt 0.363636 0.272727
f 66/57/66 76/67/76 77/68/77
f 66/57/66 77/68/77 67/58/67
vt 0.363636 0.363636
f 67/58/67 77/68/77 78/69/78
f 67/58/67 78/69/78 68/59/68
vt 0.363636 0.454545
f 68/59/68 78/69/78 79/70/79
f 68/59/68 79/70/79 69/60/69
vt 0.363636 0.545455
f 69/60/69 79/70/79 80/71/80
f 69/60/69 80/71/80 70/61/70
vt 0.363636 0.636364
f 70/61/70 80/71/80 81/72/81
f 70/61/70 81/72/81 71/62/71
vt 0.363636 0.727273
f 71/62/71 81/72/81 82/73/82
f 71/62/71 82/73/82 72/63/72
vt 0.363636 0.818182
f 72/63/72 82/73/82 83/74/83
f 72/63/72 83/74/83 73/64/73
f 73/64/73 83/74/83 84/13/84
f 73/64/73 84/13/84 74/11/74
vt 0.454545 0.000000
vt 0.454545 0.090909
f 18/65/18 19/75/19 85/76/85
f 18/65/18 85/76/85 75/66/75
vt 0.454545 0.181818
f 75/66/75 85/76/85 86/77/86
f 75/66/75 86/77/86 76/67/76
vt 0.454545 0.272727
f 76/67/76 86/77/86 87/78/87
f 76/67/76 87/78/87 77/68/77
vt 0.454545 0.363636
f 77/68/77 87/78/87 88/79/88
f 77/68/77 88/79/88 78/69/78
vt 0.454545 0.454545
f 78/69/78 88/79/88 89/80/89
f 78/69/78 89/80/89 79/70/79
vt 0.454545 0.545455
f 79/70/79 89/80/89 90/81/90
f 79/70/79 90/81/90 80/71/80
vt 0.454545 0.636364
f 80/71/80 90/81/90 91/82/91
f 80/71/80 91/82/91 81/72/81
vt 0.454545 0.727273
f 81/72/81 91/82/91 92/83/92
f 81/72/81 92/83/92 82/73/82
vt 0.454545 0.818182
f 82/73/82 92/83/92 93/84/93
f 82/73/82 93/84/93 83/74/83
f 83/74/83 93/84/93 94/15/94
f 83/74/83 94/15/94 84/13/84
vt 0.545455 0.000000
vt 0.545455 0.090909
f 19/75/19 20/85/20 95/86/95
f 19/75/19 95/86/95 85/76/85
vt 0.545455 0.181818
f 85/76/85 95/86/95 96/87/96
f 85/76/85 96/87/96 86/77/86
vt 0.545455 0.272727
f 86/77/86 96/87/96 97/88/97
f 86/77/86 97/88/97 87/78/87
vt 0.545455 0.363636
f 87/78/87 97/88/97 98/89/98
f 87/78/87 98/89/98 88/79/88
vt 0.545455 0.454545
f 88/79/88 98/89/98 99/90/99
f 88/79/88 99/90/99 89/80/89
vt 0.545455 0.545455
f 89/80/89 99/90/99 100/91/100
f 89/80/89 100/91/100 90/81/90
vt 0.545455 0.636364
f 90/81/90 100/91/100 101/92/101
f 90/81/90 101/92/101 91/82/91
vt 0.545455 0.727273
f 91/82/91 101/92/101 102/93/102
f 91/82/91 102/93/102 92/83/92
vt 0.545455 0.818182
f 92/83/92 102/93/102 103/94/103
f 92/83/92 103/94/103 93/84/93
f 93/84/93 103/94/103 104/17/104
f 93/84/93 104/17/104 94/15/94
vt 0.636364 0.000000
vt 0.636364 0.090909
f 20/85/20 21/95/21 105/96/105
f 20/85/20 105/96/105 95/86/95
vt 0.636364 0.181818
f 95/86/95 105/96/105 106/97/106
f 95/86/95 106/97/106 96/87/96
vt 0.636364 0.272727
f 96/87/96 106/97/106 107/98/107
f 96/87/96 107/98/107 97/88/97
vt 0.636364 0.363636
f 97/88/97 107/98/107 108/99/108
f 97/88/97 108/99/108 98/89/98
vt 0.636364 0.454545
f 98/89/98 108/99/108 109/100/109
f 98/89/98 109/100/109 99/90/99
vt 0.636364 0.545455
f 99/90/99 109/100/109 110/101/110
f 99/90/99 110/101/110 100/91/100
vt 0.636364 0.636364
f 100/91/100 110/101/110 111/102/111
f 100/91/100 111/102/111 101/92/101
vt 0.636364 0.727273
f 101/92/101 111/102/111 112/103/112
f 101/92/101 112/103/112 102/93/102
vt 0.636364 0.818182
f 102/93/102 112/103/112 113/104/113
f 102/93/102 113/104/113 103/94/103
f 103/94/103 113/104/113 114/19/114
f 103/94/103 114/19/114 104/17/104
vt 0.727273 0.000000
vt 0.727273 0.090909
f 21/95/21 22/105/22 115/106/115
f 21/95/21 115/106/115 105/96/105
vt 0.727273 0.181818
f 105/96/105 115/106/115 116/107/116
f 105/96/105 116/107/116 106/97/106
vt 0.727273 0.272727
f 106/97/106 116/107/116 117/108/117
f 106/97/106 117/108/117 107/98/107
vt 0.727273 0.363636
f 107/98/107 117/108/117 118/109/118
f 107/98/107 118/109/118 108/99/108
vt 0.727273 0.454545
f 108/99/108 118/109/118 119/110/119
f 108/99/108 119/110/119 109/100/109
vt 0.727273 0.545455
f 109/100/109 119/110/119 120/111/120
f 109/100/109 120/111/120 110/101/110
vt 0.727273 0.636364
f 110/101/110 120/111/120 121/112/121
f 110/101/110 121/112/121 111/102/111
vt 0.727273 0.727273
f 111/102/111 121/112/121 122/113/122
f 111/102/111 122/113/122 112/103/112
vt 0.727273 0.818182
f 112/103/112 122/113/122 123/114/123
f 112/103/112 123/114/123 113/104/113
f 113/104/113 123/114/123 124/21/124
f 113/104/113 124/21/124 114/19/114
vt 0.818182 0.000000
vt 0.818182 0.090909
f 22/105/22 23/115/23 125/116/125
f 22/105/22 125/116/125 115/106/115
vt 0.818182 0.181818
f 115/106/115 125/116/125 126/117/126
f 115/106/115 126/117/126 116/107/116
vt 0.818182 0.272727
f 116/107/116 126/117/126 127/118/127
f 116/107/116 127/118/127 117/108/117
vt 0.818182 0.363636
f 117/108/117 127/118/127 128/119/128
f 117/108/117 128/119/128 118/109/118
vt 0.818182 0.454545
f 118/109/118 128/119/128 129/120/129
f 118/109/118 129/120/129 119/110/119
vt 0.818182 0.545455
f 119/110/119 129/120/129 130/121/130
f 119/110/119 130/121/130 120/111/120
vt 0.818182 0.636364
f 120/111/120 130/121/130 131/122/131
f 120/111/120 131/122/131 121/112/121
vt 0.818182 0.727273
f 121/112/121 131/122/131 132/123/132
f 121/112/121 132/123/132 122/113/122
vt 0.818182 0.818182
f 122/113/122 132/123/132 133/124/133
f 122/113/122 133/124/133 123/114/123
f 123/114/123 133/124/133 134/23/134
f 123/114/123 134/23/134 124/21/124
vt 0.909091 0.000000
vt 0.909091 0.090909
f 23/115/23 24/125/24 135/126/135
f 23/115/23 135/126/135 125/116/125
vt 0.909091 0.181818
f 125/116/125 135/126/135 136/127/136
f 125/116/125 136/127/136 126/117/126
vt 0.909091 0.272727
f 126/117/126 136/127/136 137/128/137
f 126/117/126 137/128/137 127/118/127
vt 0.909091 0.363636
f 127/118/127 137/128/137 138/129/138
f 127/118/127 138/129/138 128/119/128
vt 0.909091 0.454545
f 128/119/128 138/129/138 139/130/139
f 128/119/128 139/130/139 129/120/129
vt 0.909091 0.545455
f 129/120/129 139/130/139 140/131/140
f 129/120/129 140/131/140 130/121/130
vt 0.909091 0.636364
f 130/121/130 140/131/140 141/132/141
f 130/121/130 141/132/141 131/122/131
vt 0.909091 0.727273
f 131/122/131 141/132/141 142/133/142
f 131/122/131 142/133/142 132/123/132
vt 0.909091 0.818182
f 132/123/132 142/133/142 143/134/143
f 132/123/132 143/134/143 133/124/133
f 133/124/133 143/134/143 144/1/144
f 133/124/133 144/1/144 134/23/134
vt 1.000000 0.000000
vt 1.000000 0.090909
f 24/125/24 2/135/2 25/136/25
f 24/125/24 25/136/25 135/126/135
vt 1.000000 0.181818
f 135/126/135 25/136/25 26/137/26
f 135/126/135 26/137/26 136/127/136
vt 1.000000 0.272727
f 136/127/136 26/137/26 27/138/27
f 136/127/136 27/138/27 137/128/137
vt 1.000000 0.363636
f 137/128/137 27/138/27 28/139/28
f 137/128/137 28/139/28 138/129/138
vt 1.000000 0.454545
f 138/129/138 28/139/28 29/140/29
f 138/129/138 29/140/29 139/130/139
vt 1.000000 0.545455
f 139/130/139 29/140/29 30/141/30
f 139/130/139 30/141/30 140/131/140
vt 1.000000 0.636364
f 140/131/140 30/141/30 31/142/31
f 140/131/140 31/142/31 141/132/141
vt 1.000000 0.727273
f 141/132/141 31/142/31 32/143/32
f 141/132/141 32/143/32 142/133/142
vt 1.000000 0.818182
f 142/133/142 32/143/32 33/144/33
f 142/133/142 33/144/33 143/134/143
f 143/134/143 33/144/33 34/2/34
f 143/134/143 34/2/34 144/1/144
# 242 faces, 144 coords texture

# End of File
