####
#
# OBJ File Generated by Meshlab
#
####
# Object pyramid_.obj
#
# Vertices: 17
# Faces: 8
#
####
vn 0.0000000000000000 -6.2831853071795862 0.0000000000000000
v 0.0000000000000000 -0.9428840000000001 -0.0000000000000000
vn -1.0073354360756663 0.5268686632204189 0.0000000000000000
v -0.9863170000000000 -0.9428840000000001 -0.9863170000000000
vn 1.0073354360756663 0.5268686632204189 0.0000000000000000
v 0.9863170000000000 -0.9428840000000001 -0.9863170000000000
vn -0.7691401286328535 0.4022848962612422 0.0000000000000000
v 0.0000000000000000 0.9428840000000001 0.0000000000000000
vn 0.0000000000000000 0.5268686632204189 1.0073354360756663
v 0.9863170000000000 -0.9428840000000001 0.9863170000000000
vn -1.0073354360756663 0.5268686632204189 0.0000000000000000
v -0.9863170000000000 -0.9428840000000001 0.9863170000000000
vn 0.0000000000000000 0.4022848962612422 0.7691401286328535
v 0.0000000000000000 0.9428840000000001 0.0000000000000000
vn 0.0000000000000000 0.4022848962612422 -0.7691401286328535
v 0.0000000000000000 0.9428840000000001 0.0000000000000000
vn 0.7691401286328535 0.4022848962612422 0.0000000000000000
v 0.0000000000000000 0.9428840000000001 0.0000000000000000
vn 0.0000000000000000 0.5268686632204189 1.0073354360756663
v -0.9863170000000000 -0.9428840000000001 0.9863170000000000
vn 0.0000000000000000 -1.5707963267948966 0.0000000000000000
v -0.9863170000000000 -0.9428840000000001 0.9863170000000000
vn 0.0000000000000000 -1.5707963267948966 0.0000000000000000
v 0.9863170000000000 -0.9428840000000001 -0.9863170000000000
vn 0.0000000000000000 0.5268686632204189 -1.0073354360756663
v 0.9863170000000000 -0.9428840000000001 -0.9863170000000000
vn 0.0000000000000000 -1.5707963267948966 0.0000000000000000
v 0.9863170000000000 -0.9428840000000001 0.9863170000000000
vn 1.0073354360756663 0.5268686632204189 0.0000000000000000
v 0.9863170000000000 -0.9428840000000001 0.9863170000000000
vn 0.0000000000000000 0.5268686632204189 -1.0073354360756663
v -0.9863170000000000 -0.9428840000000001 -0.9863170000000000
vn 0.0000000000000000 -1.5707963267948966 0.0000000000000000
v -0.9863170000000000 -0.9428840000000001 -0.9863170000000000
# 17 vertices, 0 vertices normals

f 1//1 17//17 12//12
f 16//16 8//8 13//13
f 1//1 12//12 14//14
f 3//3 9//9 15//15
f 1//1 14//14 11//11
f 5//5 7//7 10//10
f 1//1 11//11 17//17
f 6//6 4//4 2//2
# 8 faces, 0 coords texture

# End of File
